<svg xmlns="http://www.w3.org/2000/svg" xmlns:xlink="http://www.w3.org/1999/xlink" width="1553" zoomAndPan="magnify" viewBox="0 0 1164.75 938.999994" height="1252" preserveAspectRatio="xMidYMid meet" version="1.0"><defs><clipPath id="34525ef18a"><path d="M 0 0.101562 L 1164.5 0.101562 L 1164.5 938.898438 L 0 938.898438 Z M 0 0.101562 " clip-rule="nonzero"/></clipPath></defs><g clip-path="url(#34525ef18a)"><path fill="none" d="M 0 0.101562 C 384.285156 0.101562 768.570312 0.101562 1164.5 0.101562 C 1164.5 309.902344 1164.5 619.707031 1164.5 938.898438 C 780.214844 938.898438 395.929688 938.898438 0 938.898438 C 0 629.097656 0 319.292969 0 0.101562 Z M 0 0.101562 " fill-opacity="1" fill-rule="nonzero"/></g><path fill="#01e4fe" d="M 626.398438 183.8125 C 632.457031 186.757812 637.449219 192.007812 642.539062 196.351562 C 645.488281 198.855469 648.503906 201.261719 651.5625 203.636719 C 655.625 206.785156 659.539062 210.074219 663.417969 213.445312 C 666.414062 216.03125 669.476562 218.503906 672.605469 220.929688 C 676.652344 224.0625 680.550781 227.335938 684.414062 230.691406 C 687.410156 233.277344 690.472656 235.75 693.601562 238.175781 C 697.648438 241.308594 701.546875 244.582031 705.410156 247.9375 C 708.40625 250.523438 711.46875 252.996094 714.597656 255.421875 C 718.714844 258.609375 722.683594 261.9375 726.621094 265.34375 C 729.601562 267.921875 732.636719 270.410156 735.726562 272.851562 C 738.566406 275.121094 741.367188 277.433594 744.167969 279.742188 C 744.726562 280.203125 745.285156 280.664062 745.859375 281.136719 C 746.945312 282.035156 748.035156 282.933594 749.125 283.832031 C 750.984375 285.363281 752.847656 286.890625 754.714844 288.414062 C 758.78125 291.738281 762.835938 295.082031 766.890625 298.421875 C 769.828125 300.839844 772.765625 303.253906 775.707031 305.660156 C 779.214844 308.527344 782.710938 311.402344 786.207031 314.285156 C 791.070312 318.292969 795.945312 322.292969 800.828125 326.28125 C 806.273438 330.726562 811.703125 335.191406 817.128906 339.664062 C 820.066406 342.082031 823.003906 344.496094 825.949219 346.902344 C 829.453125 349.765625 832.949219 352.644531 836.445312 355.523438 C 841.3125 359.535156 846.183594 363.535156 851.066406 367.523438 C 855.390625 371.054688 859.710938 374.59375 864.019531 378.144531 C 865.679688 379.511719 867.339844 380.878906 869 382.246094 C 870.804688 383.730469 872.601562 385.214844 874.398438 386.703125 C 878.589844 390.167969 882.871094 393.410156 887.335938 396.515625 C 890.675781 399.480469 892.382812 402.359375 892.734375 406.769531 C 892.753906 407.917969 892.753906 409.066406 892.730469 410.214844 C 892.722656 410.816406 892.710938 411.414062 892.703125 412.03125 C 892.535156 416.535156 891.945312 419.808594 888.558594 423.011719 C 886.988281 424.382812 885.382812 425.648438 883.695312 426.878906 C 881.664062 428.367188 879.722656 429.9375 877.78125 431.539062 C 877.082031 432.113281 876.378906 432.691406 875.660156 433.28125 C 874.96875 433.851562 874.277344 434.421875 873.5625 435.007812 C 872.28125 436.054688 871 437.101562 869.71875 438.148438 C 865.558594 441.550781 861.410156 444.96875 857.261719 448.390625 C 853.6875 451.332031 850.105469 454.269531 846.519531 457.199219 C 843.65625 459.542969 840.800781 461.898438 837.945312 464.25 C 832.453125 468.777344 826.949219 473.289062 821.4375 477.789062 C 816.621094 481.726562 811.820312 485.675781 807.019531 489.628906 C 803.449219 492.574219 799.867188 495.507812 796.28125 498.4375 C 793.417969 500.785156 790.5625 503.136719 787.707031 505.492188 C 783.574219 508.898438 779.433594 512.296875 775.285156 515.683594 C 772.421875 518.03125 769.566406 520.382812 766.710938 522.738281 C 761.21875 527.265625 755.714844 531.773438 750.203125 536.277344 C 745.386719 540.210938 740.585938 544.164062 735.785156 548.117188 C 732.214844 551.0625 728.632812 553.996094 725.046875 556.925781 C 722.183594 559.273438 719.328125 561.625 716.472656 563.980469 C 712.339844 567.386719 708.199219 570.785156 704.050781 574.171875 C 701.1875 576.519531 698.332031 578.871094 695.476562 581.226562 C 689.984375 585.75 684.480469 590.261719 678.96875 594.765625 C 674.152344 598.699219 669.351562 602.652344 664.550781 606.605469 C 660.976562 609.550781 657.398438 612.484375 653.8125 615.414062 C 651.511719 617.300781 649.210938 619.191406 646.917969 621.082031 C 645.800781 622 644.6875 622.917969 643.570312 623.835938 C 641.175781 625.804688 638.785156 627.773438 636.421875 629.785156 C 626.546875 638.105469 626.546875 638.105469 619.496094 637.753906 C 615.828125 637.101562 613.367188 635.269531 610.835938 632.542969 C 607.609375 627.699219 608.296875 620.601562 608.871094 614.96875 C 610.214844 610.25 613.984375 607.628906 617.765625 604.765625 C 620.722656 602.507812 623.578125 600.140625 626.445312 597.769531 C 627.558594 596.847656 628.675781 595.925781 629.792969 595.007812 C 630.320312 594.570312 630.851562 594.132812 631.398438 593.679688 C 633.257812 592.148438 635.121094 590.625 636.988281 589.097656 C 640.496094 586.234375 643.992188 583.355469 647.484375 580.476562 C 652.976562 575.949219 658.480469 571.441406 663.996094 566.9375 C 668.808594 563.003906 673.609375 559.050781 678.410156 555.097656 C 681.984375 552.152344 685.5625 549.21875 689.148438 546.289062 C 692.011719 543.941406 694.867188 541.589844 697.726562 539.234375 C 701.859375 535.828125 705.996094 532.429688 710.144531 529.042969 C 713.007812 526.695312 715.863281 524.34375 718.722656 521.988281 C 724.214844 517.464844 729.71875 512.953125 735.230469 508.449219 C 740.042969 504.515625 744.84375 500.5625 749.644531 496.609375 C 753.21875 493.664062 756.796875 490.730469 760.382812 487.800781 C 763.246094 485.457031 766.101562 483.101562 768.960938 480.746094 C 774.453125 476.222656 779.957031 471.710938 785.46875 467.210938 C 790.28125 463.273438 795.085938 459.324219 799.882812 455.367188 C 803.457031 452.425781 807.039062 449.488281 810.621094 446.558594 C 813.484375 444.214844 816.34375 441.859375 819.199219 439.507812 C 823.332031 436.101562 827.46875 432.703125 831.617188 429.316406 C 833.378906 427.871094 835.136719 426.425781 836.894531 424.976562 C 842.585938 420.277344 848.28125 415.589844 854.066406 411.011719 C 853.070312 408.023438 851.109375 406.878906 848.675781 405.0625 C 844.875 402.148438 841.179688 399.160156 837.570312 396.015625 C 834.144531 393.039062 830.660156 390.171875 827.074219 387.394531 C 823.023438 384.257812 819.128906 380.984375 815.261719 377.628906 C 812.269531 375.042969 809.207031 372.570312 806.078125 370.144531 C 801.960938 366.957031 797.988281 363.628906 794.050781 360.222656 C 791.070312 357.648438 788.039062 355.160156 784.945312 352.714844 C 782.109375 350.449219 779.308594 348.136719 776.503906 345.824219 C 775.949219 345.363281 775.390625 344.902344 774.816406 344.429688 C 773.726562 343.53125 772.636719 342.632812 771.550781 341.734375 C 769.691406 340.203125 767.828125 338.675781 765.960938 337.152344 C 762.453125 334.289062 758.957031 331.410156 755.460938 328.53125 C 750.597656 324.519531 745.722656 320.519531 740.839844 316.53125 C 735.394531 312.085938 729.964844 307.621094 724.539062 303.152344 C 721.605469 300.734375 718.667969 298.320312 715.722656 295.914062 C 711.652344 292.585938 707.597656 289.246094 703.542969 285.902344 C 700.609375 283.484375 697.671875 281.070312 694.726562 278.664062 C 691.21875 275.800781 687.722656 272.921875 684.226562 270.042969 C 679.363281 266.035156 674.488281 262.035156 669.605469 258.046875 C 664.160156 253.597656 658.730469 249.132812 653.304688 244.664062 C 650.371094 242.246094 647.429688 239.832031 644.488281 237.425781 C 640.980469 234.558594 637.484375 231.679688 633.988281 228.800781 C 630.398438 225.84375 626.808594 222.890625 623.210938 219.945312 C 622.578125 219.425781 621.945312 218.902344 621.292969 218.367188 C 619.914062 217.246094 618.515625 216.144531 617.113281 215.050781 C 616.371094 214.472656 615.628906 213.890625 614.867188 213.289062 C 614.203125 212.777344 613.539062 212.261719 612.851562 211.734375 C 609.917969 208.894531 608.792969 206.210938 608.519531 202.183594 C 608.5 200.949219 608.492188 199.714844 608.496094 198.480469 C 608.472656 197.863281 608.453125 197.25 608.429688 196.617188 C 608.414062 192.121094 609.457031 189.296875 612.617188 186.0625 C 617.054688 182.554688 621.050781 182.226562 626.398438 183.8125 Z M 626.398438 183.8125 " fill-opacity="1" fill-rule="nonzero"/><path fill="#823aaf" d="M 396.054688 184.234375 C 399.117188 185.949219 401.234375 188.078125 402.664062 191.308594 C 402.898438 194.261719 402.898438 194.261719 402.664062 196.558594 C 402.167969 196.558594 401.671875 196.558594 401.164062 196.558594 C 400.964844 197.007812 400.765625 197.457031 400.558594 197.917969 C 399.632812 199.613281 398.777344 200.527344 397.320312 201.773438 C 396.855469 202.171875 396.390625 202.570312 395.914062 202.984375 C 395.171875 203.605469 395.171875 203.605469 394.414062 204.246094 C 393.652344 204.894531 393.652344 204.894531 392.875 205.558594 C 389.527344 208.402344 386.136719 211.183594 382.691406 213.90625 C 376.585938 218.730469 370.621094 223.738281 364.617188 228.6875 C 361.042969 231.628906 357.460938 234.566406 353.878906 237.496094 C 351.015625 239.839844 348.15625 242.195312 345.300781 244.546875 C 339.808594 249.074219 334.304688 253.585938 328.792969 258.085938 C 323.976562 262.023438 319.175781 265.972656 314.378906 269.925781 C 310.804688 272.871094 307.222656 275.808594 303.636719 278.734375 C 300.773438 281.082031 297.917969 283.4375 295.0625 285.789062 C 290.929688 289.195312 286.789062 292.59375 282.640625 295.984375 C 279.777344 298.328125 276.921875 300.683594 274.066406 303.035156 C 268.574219 307.5625 263.070312 312.070312 257.558594 316.574219 C 252.742188 320.507812 247.941406 324.460938 243.140625 328.414062 C 239.570312 331.359375 235.988281 334.292969 232.402344 337.222656 C 229.539062 339.570312 226.683594 341.921875 223.828125 344.277344 C 218.335938 348.800781 212.832031 353.3125 207.320312 357.816406 C 202.503906 361.75 197.703125 365.703125 192.902344 369.65625 C 189.328125 372.601562 185.75 375.535156 182.164062 378.464844 C 179.300781 380.808594 176.445312 383.164062 173.585938 385.519531 C 170 388.476562 166.410156 391.429688 162.808594 394.375 C 162.179688 394.890625 161.550781 395.40625 160.902344 395.941406 C 159.484375 397.09375 158.0625 398.234375 156.632812 399.371094 C 155.871094 399.980469 155.109375 400.589844 154.328125 401.21875 C 153.289062 402.039062 153.289062 402.039062 152.230469 402.878906 C 151.730469 403.335938 151.234375 403.792969 150.71875 404.265625 C 150.71875 404.757812 150.71875 405.253906 150.71875 405.765625 C 152.121094 407.066406 152.121094 407.066406 153.953125 408.433594 C 154.636719 408.96875 155.324219 409.507812 156.03125 410.058594 C 156.753906 410.621094 157.472656 411.183594 158.214844 411.761719 C 159.578125 412.867188 160.9375 413.976562 162.292969 415.089844 C 162.988281 415.65625 163.679688 416.226562 164.394531 416.8125 C 165.078125 417.371094 165.761719 417.933594 166.464844 418.511719 C 167.746094 419.558594 169.027344 420.605469 170.308594 421.652344 C 174.46875 425.054688 178.617188 428.472656 182.765625 431.894531 C 185.703125 434.3125 188.640625 436.726562 191.582031 439.132812 C 195.089844 441.996094 198.585938 444.875 202.082031 447.753906 C 206.949219 451.765625 211.820312 455.765625 216.703125 459.753906 C 222.148438 464.199219 227.578125 468.664062 233.003906 473.132812 C 235.941406 475.550781 238.878906 477.964844 241.824219 480.371094 C 245.890625 483.699219 249.945312 487.039062 254.003906 490.382812 C 256.9375 492.800781 259.875 495.214844 262.820312 497.617188 C 266.324219 500.484375 269.820312 503.363281 273.316406 506.242188 C 278.183594 510.25 283.054688 514.25 287.9375 518.238281 C 293.382812 522.6875 298.816406 527.152344 304.238281 531.621094 C 307.175781 534.039062 310.113281 536.453125 313.058594 538.859375 C 317.125 542.183594 321.179688 545.527344 325.238281 548.867188 C 328.171875 551.285156 331.109375 553.699219 334.054688 556.105469 C 337.558594 558.972656 341.054688 561.851562 344.550781 564.730469 C 349.417969 568.738281 354.289062 572.738281 359.171875 576.726562 C 364.054688 580.714844 368.929688 584.714844 373.792969 588.722656 C 377.308594 591.617188 380.820312 594.511719 384.339844 597.394531 C 384.964844 597.910156 385.59375 598.425781 386.242188 598.957031 C 387.988281 600.371094 389.742188 601.773438 391.507812 603.167969 C 392.320312 603.816406 392.320312 603.816406 393.148438 604.476562 C 394.21875 605.328125 395.292969 606.175781 396.371094 607.019531 C 400.109375 610.007812 402.355469 612.273438 403.132812 617.171875 C 403.0625 619.132812 402.839844 619.992188 401.617188 621.550781 C 397.378906 625.328125 393.78125 626.363281 388.1875 626.5625 C 383.28125 625.722656 379.59375 622.261719 375.996094 619.046875 C 372.46875 615.953125 368.886719 612.964844 365.171875 610.09375 C 361.054688 606.90625 357.082031 603.578125 353.144531 600.171875 C 350.164062 597.59375 347.132812 595.105469 344.042969 592.664062 C 341.203125 590.394531 338.402344 588.085938 335.601562 585.773438 C 334.761719 585.082031 334.761719 585.082031 333.910156 584.378906 C 332.820312 583.480469 331.734375 582.582031 330.644531 581.683594 C 328.785156 580.152344 326.921875 578.625 325.054688 577.101562 C 320.984375 573.777344 316.929688 570.433594 312.875 567.09375 C 309.941406 564.675781 307.003906 562.261719 304.058594 559.855469 C 300.554688 556.992188 297.058594 554.113281 293.5625 551.234375 C 288.695312 547.222656 283.824219 543.222656 278.941406 539.234375 C 273.496094 534.789062 268.0625 530.324219 262.636719 525.851562 C 259.703125 523.433594 256.765625 521.019531 253.820312 518.613281 C 249.75 515.289062 245.695312 511.949219 241.640625 508.605469 C 238.707031 506.1875 235.769531 503.773438 232.824219 501.367188 C 229.316406 498.503906 225.820312 495.625 222.328125 492.746094 C 217.460938 488.734375 212.589844 484.734375 207.707031 480.746094 C 202.261719 476.300781 196.828125 471.835938 191.402344 467.367188 C 188.46875 464.949219 185.53125 462.53125 182.585938 460.128906 C 178.515625 456.800781 174.460938 453.460938 170.40625 450.117188 C 167.472656 447.699219 164.535156 445.285156 161.589844 442.878906 C 158.082031 440.015625 154.585938 437.136719 151.09375 434.257812 C 147.503906 431.300781 143.914062 428.34375 140.3125 425.398438 C 139.675781 424.878906 139.035156 424.355469 138.378906 423.816406 C 137.054688 422.734375 135.726562 421.660156 134.398438 420.585938 C 129.707031 416.785156 125.175781 412.847656 120.722656 408.761719 C 120.230469 409.011719 119.734375 409.257812 119.222656 409.511719 C 118.90625 404.921875 119.128906 402.652344 122.222656 399.015625 C 124.140625 397.160156 126.160156 395.457031 128.222656 393.765625 C 128.859375 393.238281 129.5 392.710938 130.15625 392.167969 C 132.253906 390.445312 134.363281 388.730469 136.46875 387.019531 C 137.847656 385.894531 139.21875 384.769531 140.59375 383.644531 C 142.605469 382 144.613281 380.355469 146.621094 378.714844 C 150.871094 375.242188 155.109375 371.761719 159.339844 368.273438 C 164.832031 363.746094 170.335938 359.234375 175.847656 354.734375 C 180.664062 350.796875 185.464844 346.847656 190.265625 342.890625 C 193.839844 339.949219 197.417969 337.011719 201.003906 334.082031 C 203.867188 331.738281 206.722656 329.382812 209.578125 327.03125 C 213.714844 323.625 217.851562 320.226562 222 316.835938 C 224.863281 314.492188 227.71875 312.136719 230.574219 309.785156 C 236.066406 305.257812 241.570312 300.746094 247.082031 296.246094 C 251.898438 292.3125 256.699219 288.359375 261.5 284.40625 C 265.074219 281.460938 268.652344 278.527344 272.238281 275.597656 C 275.101562 273.25 277.957031 270.898438 280.816406 268.542969 C 286.308594 264.015625 291.8125 259.507812 297.324219 255.003906 C 302.136719 251.070312 306.941406 247.117188 311.738281 243.164062 C 315.3125 240.21875 318.890625 237.285156 322.476562 234.355469 C 325.339844 232.007812 328.199219 229.65625 331.054688 227.300781 C 335.1875 223.894531 339.324219 220.496094 343.472656 217.109375 C 346.335938 214.761719 349.191406 212.410156 352.050781 210.054688 C 356.285156 206.566406 360.523438 203.082031 364.773438 199.609375 C 366.074219 198.546875 367.367188 197.480469 368.664062 196.414062 C 372.457031 193.28125 376.285156 190.203125 380.167969 187.1875 C 380.582031 186.859375 380.996094 186.535156 381.421875 186.199219 C 386.011719 182.65625 390.714844 181.867188 396.054688 184.234375 Z M 396.054688 184.234375 " fill-opacity="1" fill-rule="nonzero"/><path fill="#652772" d="M 1008.710938 674.628906 C 1009.433594 674.625 1010.152344 674.621094 1010.898438 674.617188 C 1012.414062 674.613281 1013.933594 674.613281 1015.449219 674.621094 C 1017.75 674.628906 1020.050781 674.605469 1022.351562 674.582031 C 1031.476562 674.550781 1040.15625 674.53125 1047.199219 681.167969 C 1050.820312 685.496094 1052.113281 690.234375 1052.15625 695.78125 C 1052.164062 696.554688 1052.164062 696.554688 1052.171875 697.339844 C 1052.1875 699.039062 1052.195312 700.742188 1052.203125 702.441406 C 1052.207031 703.027344 1052.207031 703.609375 1052.210938 704.210938 C 1052.226562 707.300781 1052.238281 710.394531 1052.246094 713.484375 C 1052.253906 716.660156 1052.28125 719.835938 1052.308594 723.011719 C 1052.328125 725.46875 1052.335938 727.925781 1052.339844 730.382812 C 1052.339844 731.550781 1052.351562 732.71875 1052.363281 733.890625 C 1052.453125 741.820312 1052.246094 749.621094 1046.726562 755.890625 C 1041.039062 760.789062 1034.132812 761.632812 1026.890625 761.554688 C 1026.054688 761.558594 1025.222656 761.5625 1024.363281 761.566406 C 1021.578125 761.574219 1018.789062 761.5625 1016.003906 761.546875 C 1013.984375 761.550781 1011.960938 761.550781 1009.941406 761.554688 C 1005.550781 761.5625 1001.164062 761.558594 996.773438 761.542969 C 990.246094 761.527344 983.71875 761.527344 977.195312 761.527344 C 966.214844 761.53125 955.234375 761.523438 944.253906 761.503906 C 933.382812 761.488281 922.511719 761.476562 911.644531 761.472656 C 910.628906 761.472656 910.628906 761.472656 909.59375 761.472656 C 906.160156 761.46875 902.726562 761.46875 899.292969 761.46875 C 874.976562 761.460938 850.664062 761.441406 826.347656 761.414062 C 802.726562 761.386719 779.109375 761.363281 755.488281 761.351562 C 754.757812 761.351562 754.03125 761.351562 753.28125 761.351562 C 745.96875 761.347656 738.652344 761.34375 731.339844 761.339844 C 716.441406 761.332031 701.546875 761.324219 686.648438 761.3125 C 685.964844 761.3125 685.277344 761.3125 684.574219 761.3125 C 638.84375 761.285156 593.113281 761.238281 547.382812 761.1875 C 547.382812 756.484375 547.382812 751.785156 547.382812 746.941406 C 548.925781 746.941406 548.925781 746.941406 550.5 746.9375 C 595.8125 746.917969 641.128906 746.894531 686.441406 746.851562 C 687.46875 746.851562 687.46875 746.851562 688.519531 746.851562 C 703.417969 746.835938 718.316406 746.824219 733.214844 746.808594 C 740.523438 746.800781 747.828125 746.792969 755.136719 746.785156 C 755.863281 746.785156 756.589844 746.785156 757.339844 746.78125 C 780.921875 746.757812 804.503906 746.746094 828.085938 746.738281 C 852.3125 746.726562 876.539062 746.707031 900.761719 746.675781 C 904.183594 746.671875 907.601562 746.667969 911.019531 746.664062 C 911.691406 746.664062 912.367188 746.664062 913.058594 746.660156 C 923.90625 746.648438 934.753906 746.644531 945.605469 746.648438 C 956.5 746.648438 967.394531 746.636719 978.292969 746.617188 C 984.773438 746.605469 991.253906 746.601562 997.734375 746.609375 C 1002.054688 746.613281 1006.378906 746.605469 1010.703125 746.589844 C 1013.167969 746.582031 1015.636719 746.582031 1018.101562 746.589844 C 1020.753906 746.597656 1023.40625 746.585938 1026.058594 746.570312 C 1026.832031 746.578125 1027.605469 746.585938 1028.402344 746.589844 C 1032.464844 746.59375 1032.464844 746.59375 1036.003906 744.804688 C 1037.417969 742.574219 1037.394531 740.988281 1037.378906 738.355469 C 1037.382812 737.375 1037.382812 736.394531 1037.386719 735.382812 C 1037.375 734.316406 1037.359375 733.246094 1037.347656 732.179688 C 1037.34375 731.078125 1037.339844 729.980469 1037.339844 728.882812 C 1037.332031 726.585938 1037.316406 724.285156 1037.292969 721.984375 C 1037.265625 719.039062 1037.25 716.097656 1037.246094 713.152344 C 1037.238281 710.339844 1037.222656 707.527344 1037.207031 704.714844 C 1037.203125 704.179688 1037.199219 703.644531 1037.199219 703.09375 C 1037.191406 701.574219 1037.175781 700.054688 1037.160156 698.539062 C 1037.148438 697.242188 1037.148438 697.242188 1037.136719 695.921875 C 1037.042969 694.046875 1036.824219 692.488281 1036.277344 690.703125 C 1031.511719 690.644531 1026.75 690.605469 1021.984375 690.578125 C 1020.363281 690.566406 1018.742188 690.550781 1017.121094 690.53125 C 1014.792969 690.503906 1012.464844 690.492188 1010.136719 690.484375 C 1009.046875 690.464844 1009.046875 690.464844 1007.933594 690.449219 C 1007.257812 690.449219 1006.582031 690.449219 1005.886719 690.445312 C 1004.996094 690.441406 1004.996094 690.441406 1004.085938 690.433594 C 1002.117188 690.773438 1001.464844 691.359375 1000.285156 692.953125 C 999.9375 695.445312 999.9375 695.445312 999.988281 698.316406 C 999.984375 699.097656 999.984375 699.097656 999.980469 699.898438 C 999.976562 701 999.984375 702.105469 999.992188 703.207031 C 1000.003906 704.894531 999.992188 706.578125 999.976562 708.265625 C 999.980469 709.335938 999.980469 710.410156 999.988281 711.484375 C 999.988281 712.460938 999.992188 713.433594 999.996094 714.4375 C 1000.164062 716.878906 1000.164062 716.878906 1001.015625 718.757812 C 1003.460938 720.671875 1006.171875 720.398438 1009.152344 720.402344 C 1009.796875 720.414062 1010.441406 720.429688 1011.109375 720.441406 C 1013.171875 720.476562 1015.234375 720.492188 1017.296875 720.507812 C 1018.695312 720.53125 1020.09375 720.550781 1021.492188 720.574219 C 1024.921875 720.632812 1028.347656 720.664062 1031.777344 720.695312 C 1031.777344 725.644531 1031.777344 730.59375 1031.777344 735.691406 C 1027.765625 735.761719 1023.75 735.820312 1019.738281 735.859375 C 1018.375 735.871094 1017.011719 735.894531 1015.652344 735.917969 C 1006.785156 736.085938 999.488281 735.96875 991.753906 731.101562 C 985.144531 723.859375 985.078125 715.640625 984.984375 706.375 C 984.96875 705.152344 984.941406 703.929688 984.90625 702.707031 C 984.664062 694.136719 985.128906 686.960938 991.128906 680.191406 C 996.089844 675.359375 1002.101562 674.609375 1008.710938 674.628906 Z M 1008.710938 674.628906 " fill-opacity="1" fill-rule="nonzero"/><path fill="#ea0c64" d="M 625.367188 264.792969 C 624.46875 269.367188 623.242188 273.636719 621.523438 277.964844 C 621.175781 278.84375 621.175781 278.84375 620.820312 279.746094 C 618.691406 285.039062 616.203125 290.089844 613.582031 295.15625 C 612.441406 297.386719 611.328125 299.628906 610.21875 301.875 C 605.144531 312.140625 599.914062 322.292969 594.351562 332.308594 C 592.996094 334.757812 591.65625 337.214844 590.316406 339.671875 C 583.921875 351.394531 577.285156 362.941406 570.410156 374.386719 C 569.289062 376.253906 568.171875 378.121094 567.058594 379.992188 C 564.277344 384.664062 561.429688 389.277344 558.503906 393.859375 C 557.214844 395.882812 555.9375 397.917969 554.664062 399.957031 C 549.058594 408.894531 543.183594 417.546875 536.882812 426.007812 C 536.09375 427.082031 535.304688 428.152344 534.511719 429.222656 C 527.761719 438.328125 520.664062 447.003906 512.890625 455.253906 C 512.308594 455.875 511.726562 456.496094 511.128906 457.136719 C 507.304688 461.109375 503.234375 464.21875 498.644531 467.25 C 498.199219 467.585938 497.757812 467.921875 497.300781 468.265625 C 495.566406 469.570312 494.5625 470.277344 492.355469 470.136719 C 489.929688 469.347656 488.800781 468.230469 487.003906 466.433594 C 482.855469 462.550781 478.371094 459.839844 473.429688 457.082031 C 472.605469 456.609375 471.78125 456.140625 470.929688 455.65625 C 468.925781 454.511719 466.914062 453.378906 464.898438 452.253906 C 465.75 449.566406 466.648438 447.082031 468.007812 444.613281 C 468.484375 443.75 468.484375 443.75 468.96875 442.867188 C 469.484375 441.945312 469.484375 441.945312 470.007812 441.007812 C 470.371094 440.355469 470.734375 439.703125 471.105469 439.03125 C 473.835938 434.140625 476.636719 429.289062 479.476562 424.460938 C 479.832031 423.855469 480.1875 423.246094 480.558594 422.617188 C 487.308594 411.234375 494.554688 400.148438 501.90625 389.144531 C 503.144531 387.296875 504.375 385.441406 505.609375 383.589844 C 512.761719 372.855469 520.058594 362.230469 527.933594 352.007812 C 528.441406 351.347656 528.949219 350.683594 529.472656 350.003906 C 530.941406 348.09375 532.410156 346.183594 533.886719 344.277344 C 534.28125 343.761719 534.679688 343.246094 535.089844 342.714844 C 539.683594 336.765625 544.429688 330.96875 549.324219 325.265625 C 550.398438 324.011719 551.464844 322.746094 552.53125 321.484375 C 560.433594 312.136719 568.597656 302.5 577.9375 294.554688 C 579.609375 293.121094 581.242188 291.675781 582.839844 290.160156 C 592.628906 280.898438 603.636719 273.183594 615.617188 267.042969 C 616.675781 266.5 616.675781 266.5 617.757812 265.941406 C 620.617188 264.5625 622.324219 263.785156 625.367188 264.792969 Z M 625.367188 264.792969 " fill-opacity="1" fill-rule="nonzero"/><path fill="#0de5fe" d="M 458.289062 655.1875 C 459.203125 655.1875 460.117188 655.1875 461.058594 655.1875 C 462.972656 655.1875 464.886719 655.195312 466.800781 655.207031 C 469.738281 655.226562 472.671875 655.222656 475.605469 655.21875 C 477.472656 655.222656 479.339844 655.226562 481.207031 655.234375 C 482.082031 655.234375 482.960938 655.234375 483.863281 655.234375 C 484.679688 655.238281 485.492188 655.246094 486.332031 655.253906 C 487.042969 655.257812 487.757812 655.261719 488.496094 655.265625 C 491.398438 655.5625 492.785156 656.25 494.691406 658.472656 C 496.054688 661.675781 495.941406 664.570312 495.898438 668.019531 C 495.898438 669.117188 495.898438 669.117188 495.898438 670.234375 C 495.898438 672.648438 495.882812 675.0625 495.863281 677.476562 C 495.859375 679.152344 495.855469 680.828125 495.855469 682.503906 C 495.84375 686.914062 495.824219 691.320312 495.796875 695.726562 C 495.773438 700.222656 495.765625 704.722656 495.753906 709.222656 C 495.730469 718.046875 495.691406 726.867188 495.644531 735.691406 C 490.695312 735.691406 485.746094 735.691406 480.648438 735.691406 C 480.648438 729.257812 480.648438 722.824219 480.648438 716.195312 C 464.066406 716.195312 447.488281 716.195312 430.40625 716.195312 C 430.40625 722.628906 430.40625 729.0625 430.40625 735.691406 C 425.457031 735.691406 420.507812 735.691406 415.410156 735.691406 C 415.34375 729.8125 415.289062 723.933594 415.253906 718.050781 C 415.238281 715.320312 415.21875 712.589844 415.183594 709.859375 C 415.152344 707.210938 415.132812 704.566406 415.125 701.921875 C 415.117188 700.441406 415.09375 698.960938 415.070312 697.480469 C 415.066406 685.871094 418.429688 675.21875 426.332031 666.519531 C 435.46875 658.039062 446.082031 655.089844 458.289062 655.1875 Z M 458.289062 655.1875 " fill-opacity="1" fill-rule="nonzero"/><path fill="#ca1259" d="M 624.617188 265.542969 C 624.21875 270.023438 623.25 273.753906 621.570312 277.917969 C 621.335938 278.507812 621.097656 279.097656 620.855469 279.707031 C 618.707031 285.007812 616.207031 290.078125 613.582031 295.15625 C 612.441406 297.386719 611.328125 299.628906 610.21875 301.875 C 605.144531 312.140625 599.914062 322.292969 594.351562 332.308594 C 592.996094 334.757812 591.65625 337.214844 590.316406 339.671875 C 583.921875 351.394531 577.285156 362.941406 570.410156 374.386719 C 569.289062 376.253906 568.171875 378.121094 567.058594 379.992188 C 564.277344 384.664062 561.429688 389.277344 558.503906 393.859375 C 557.214844 395.882812 555.9375 397.917969 554.664062 399.957031 C 549.058594 408.894531 543.183594 417.546875 536.882812 426.007812 C 536.09375 427.082031 535.304688 428.152344 534.511719 429.222656 C 527.761719 438.328125 520.664062 447.003906 512.890625 455.253906 C 512.308594 455.875 511.726562 456.496094 511.128906 457.136719 C 507.316406 461.097656 503.246094 464.25 498.644531 467.25 C 497.902344 467.746094 497.160156 468.242188 496.394531 468.75 C 493.449219 468.535156 492.007812 467.695312 489.945312 465.652344 C 486.34375 462.34375 482.34375 460.015625 478.117188 457.597656 C 477.367188 457.160156 476.621094 456.726562 475.851562 456.277344 C 472.292969 454.191406 472.292969 454.191406 468.648438 452.253906 C 469.824219 449.023438 471.410156 446.207031 473.148438 443.253906 C 473.789062 443.375 474.429688 443.492188 475.085938 443.613281 C 485.421875 445.199219 492.984375 443.316406 501.5 437.351562 C 504.351562 435.175781 506.925781 432.882812 509.394531 430.285156 C 510.703125 428.945312 512.074219 427.738281 513.5 426.523438 C 531.273438 411.035156 543.441406 390.125 554.882812 369.769531 C 555.265625 369.089844 555.652344 368.40625 556.046875 367.703125 C 562.847656 355.570312 569.035156 343.117188 575.265625 330.6875 C 575.679688 329.863281 576.09375 329.039062 576.519531 328.191406 C 577.742188 325.757812 578.957031 323.324219 580.171875 320.886719 C 580.570312 320.089844 580.96875 319.292969 581.382812 318.472656 C 583.351562 314.5 585.230469 310.515625 586.960938 306.433594 C 591.0625 296.820312 595.234375 289.785156 603.011719 282.789062 C 603.878906 281.972656 604.746094 281.148438 605.609375 280.328125 C 607.667969 278.371094 609.757812 276.445312 611.867188 274.542969 C 610.804688 275.121094 609.746094 275.703125 608.683594 276.285156 C 607.796875 276.769531 607.796875 276.769531 606.894531 277.265625 C 604.417969 278.695312 602.164062 280.332031 599.871094 282.039062 C 600.046875 279.59375 600.695312 278.976562 602.570312 277.320312 C 603.425781 276.695312 604.292969 276.082031 605.167969 275.480469 C 605.625 275.15625 606.085938 274.832031 606.558594 274.5 C 619.671875 265.542969 619.671875 265.542969 624.617188 265.542969 Z M 624.617188 265.542969 " fill-opacity="1" fill-rule="nonzero"/><path fill="#672973" d="M 743.953125 674.730469 C 744.679688 674.726562 745.410156 674.722656 746.160156 674.71875 C 747.695312 674.714844 749.230469 674.714844 750.769531 674.71875 C 753.105469 674.722656 755.445312 674.703125 757.78125 674.683594 C 759.28125 674.683594 760.777344 674.683594 762.277344 674.683594 C 762.96875 674.675781 763.660156 674.667969 764.375 674.664062 C 770.59375 674.707031 775.644531 676.234375 780.582031 680.203125 C 785.300781 685.476562 786.816406 690.203125 786.78125 697.191406 C 786.78125 697.804688 786.78125 698.417969 786.785156 699.050781 C 786.785156 700.34375 786.78125 701.636719 786.777344 702.925781 C 786.769531 704.894531 786.777344 706.859375 786.785156 708.824219 C 786.785156 710.085938 786.785156 711.347656 786.78125 712.609375 C 786.785156 713.191406 786.785156 713.773438 786.789062 714.371094 C 786.734375 720.820312 785.164062 725.765625 780.582031 730.445312 C 775.050781 734.390625 770.269531 735.609375 763.566406 735.488281 C 762.359375 735.488281 762.359375 735.488281 761.125 735.488281 C 759.4375 735.488281 757.75 735.472656 756.0625 735.445312 C 753.496094 735.410156 750.929688 735.417969 748.359375 735.425781 C 746.710938 735.417969 745.0625 735.40625 743.414062 735.394531 C 742.652344 735.394531 741.894531 735.398438 741.113281 735.398438 C 735.167969 735.28125 729.527344 733.953125 725.234375 729.554688 C 724.84375 729.171875 724.453125 728.789062 724.046875 728.398438 C 719.289062 721.671875 719.398438 715.261719 719.496094 707.273438 C 719.515625 705.28125 719.511719 703.289062 719.5 701.296875 C 719.507812 700.011719 719.511719 698.730469 719.519531 697.449219 C 719.519531 696.859375 719.515625 696.273438 719.515625 695.667969 C 719.613281 689.773438 721.3125 684.984375 725.339844 680.605469 C 730.738281 675.648438 736.917969 674.722656 743.953125 674.730469 Z M 743.953125 674.730469 " fill-opacity="1" fill-rule="nonzero"/><path fill="#03e2fd" d="M 119.972656 408.011719 C 120.710938 408.648438 121.453125 409.289062 122.210938 409.945312 C 125.246094 412.542969 128.320312 415.085938 131.410156 417.621094 C 131.96875 418.082031 132.527344 418.542969 133.105469 419.015625 C 137.472656 422.601562 141.84375 426.183594 146.21875 429.757812 C 151.664062 434.207031 157.09375 438.667969 162.519531 443.140625 C 165.457031 445.558594 168.394531 447.972656 171.339844 450.378906 C 175.40625 453.703125 179.460938 457.046875 183.515625 460.386719 C 186.453125 462.804688 189.390625 465.21875 192.332031 467.625 C 195.839844 470.492188 199.335938 473.367188 202.832031 476.25 C 207.695312 480.257812 212.570312 484.257812 217.453125 488.246094 C 222.898438 492.691406 228.328125 497.15625 233.753906 501.628906 C 236.691406 504.046875 239.628906 506.460938 242.574219 508.867188 C 246.640625 512.191406 250.695312 515.535156 254.75 518.875 C 257.6875 521.292969 260.625 523.707031 263.570312 526.113281 C 267.074219 528.976562 270.570312 531.855469 274.066406 534.734375 C 278.933594 538.746094 283.804688 542.746094 288.6875 546.734375 C 294.132812 551.179688 299.5625 555.644531 304.988281 560.117188 C 307.925781 562.535156 310.863281 564.949219 313.808594 567.355469 C 317.875 570.679688 321.929688 574.019531 325.988281 577.363281 C 328.921875 579.78125 331.859375 582.195312 334.804688 584.601562 C 338.308594 587.464844 341.804688 590.34375 345.300781 593.222656 C 350.167969 597.234375 355.039062 601.234375 359.921875 605.222656 C 361.203125 606.265625 362.484375 607.3125 363.765625 608.359375 C 364.4375 608.90625 365.105469 609.453125 365.796875 610.019531 C 367.65625 611.539062 369.5 613.082031 371.339844 614.625 C 372.179688 615.324219 372.179688 615.324219 373.035156 616.039062 C 374.140625 616.960938 375.242188 617.886719 376.34375 618.8125 C 381.269531 622.914062 385.25 626.007812 391.894531 625.707031 C 396.367188 625.097656 398.945312 622.695312 401.914062 619.46875 C 403.25 620.804688 402.855469 622.675781 402.898438 624.480469 C 402.84375 629.210938 401.90625 631.429688 398.585938 634.8125 C 395.402344 637.578125 392.386719 638.089844 388.230469 637.863281 C 384.585938 637.15625 382.230469 635.308594 379.417969 632.964844 C 378.6875 632.355469 377.957031 631.746094 377.203125 631.121094 C 375.546875 629.726562 373.902344 628.320312 372.261719 626.910156 C 369.707031 624.726562 367.078125 622.652344 364.421875 620.59375 C 360.09375 617.226562 355.894531 613.730469 351.722656 610.175781 C 349.011719 607.859375 346.25 605.605469 343.484375 603.355469 C 340.582031 600.988281 337.691406 598.605469 334.804688 596.222656 C 331.308594 593.34375 327.8125 590.464844 324.304688 587.601562 C 320.796875 584.734375 317.300781 581.855469 313.808594 578.976562 C 308.941406 574.96875 304.070312 570.96875 299.1875 566.980469 C 293.742188 562.53125 288.308594 558.066406 282.882812 553.597656 C 279.949219 551.179688 277.011719 548.765625 274.066406 546.359375 C 269.996094 543.035156 265.941406 539.691406 261.886719 536.351562 C 258.953125 533.933594 256.015625 531.519531 253.070312 529.113281 C 249.5625 526.246094 246.066406 523.367188 242.574219 520.488281 C 237.707031 516.480469 232.835938 512.480469 227.949219 508.492188 C 222.507812 504.042969 217.074219 499.582031 211.648438 495.109375 C 208.714844 492.691406 205.777344 490.277344 202.832031 487.871094 C 198.761719 484.546875 194.707031 481.203125 190.652344 477.863281 C 187.71875 475.445312 184.78125 473.03125 181.835938 470.625 C 178.328125 467.757812 174.832031 464.882812 171.339844 462 C 166.472656 457.992188 161.597656 453.992188 156.714844 450.003906 C 151.832031 446.015625 146.960938 442.015625 142.09375 438.007812 C 140.996094 437.101562 139.894531 436.195312 138.796875 435.292969 C 136.945312 433.769531 135.097656 432.246094 133.253906 430.714844 C 132.554688 430.136719 131.851562 429.558594 131.128906 428.960938 C 130.492188 428.4375 129.855469 427.910156 129.199219 427.367188 C 127.679688 426.171875 126.144531 425.128906 124.519531 424.085938 C 121.671875 421.820312 120.253906 419.746094 119.222656 416.261719 C 118.902344 413.394531 118.664062 410.632812 119.972656 408.011719 Z M 119.972656 408.011719 " fill-opacity="1" fill-rule="nonzero"/><path fill="#823cb0" d="M 890.808594 408.011719 C 891.304688 408.261719 891.796875 408.507812 892.308594 408.761719 C 892.714844 413.683594 892.777344 417.546875 889.808594 421.640625 C 887.960938 423.664062 885.90625 425.265625 883.695312 426.878906 C 881.664062 428.367188 879.722656 429.9375 877.78125 431.539062 C 877.082031 432.113281 876.378906 432.691406 875.660156 433.28125 C 874.96875 433.851562 874.277344 434.421875 873.5625 435.007812 C 872.28125 436.054688 871 437.101562 869.71875 438.148438 C 865.558594 441.550781 861.410156 444.96875 857.261719 448.390625 C 853.6875 451.332031 850.105469 454.269531 846.519531 457.199219 C 843.65625 459.542969 840.800781 461.898438 837.945312 464.25 C 832.453125 468.777344 826.949219 473.289062 821.4375 477.789062 C 816.621094 481.726562 811.820312 485.675781 807.019531 489.628906 C 803.449219 492.574219 799.867188 495.507812 796.28125 498.4375 C 793.417969 500.785156 790.5625 503.136719 787.707031 505.492188 C 783.574219 508.898438 779.433594 512.296875 775.285156 515.683594 C 772.421875 518.03125 769.566406 520.382812 766.710938 522.738281 C 761.21875 527.265625 755.714844 531.773438 750.203125 536.277344 C 745.386719 540.210938 740.585938 544.164062 735.785156 548.117188 C 732.214844 551.0625 728.632812 553.996094 725.046875 556.925781 C 722.183594 559.273438 719.328125 561.625 716.472656 563.980469 C 712.339844 567.386719 708.199219 570.785156 704.050781 574.171875 C 701.1875 576.519531 698.332031 578.871094 695.476562 581.226562 C 689.984375 585.75 684.480469 590.261719 678.96875 594.765625 C 674.152344 598.699219 669.351562 602.652344 664.550781 606.605469 C 660.976562 609.550781 657.398438 612.484375 653.8125 615.414062 C 651.511719 617.300781 649.210938 619.191406 646.917969 621.082031 C 645.800781 622 644.6875 622.917969 643.570312 623.835938 C 641.175781 625.804688 638.785156 627.773438 636.421875 629.785156 C 626.546875 638.105469 626.546875 638.105469 619.496094 637.753906 C 615.828125 637.101562 613.367188 635.269531 610.835938 632.542969 C 608.933594 629.6875 608.78125 627.550781 608.824219 624.199219 C 608.828125 623.457031 608.835938 622.710938 608.84375 621.941406 C 608.855469 621.089844 608.855469 621.089844 608.871094 620.21875 C 609.363281 619.96875 609.859375 619.722656 610.367188 619.46875 C 611.246094 620.589844 612.125 621.714844 613.003906 622.835938 C 615.410156 625.28125 617.746094 625.699219 621.101562 625.746094 C 621.777344 625.769531 622.457031 625.789062 623.15625 625.8125 C 627.992188 625.054688 631.59375 621.828125 635.160156 618.671875 C 638.558594 615.730469 642.007812 612.890625 645.566406 610.140625 C 649.695312 606.9375 653.683594 603.59375 657.636719 600.171875 C 660.617188 597.59375 663.652344 595.105469 666.742188 592.664062 C 669.578125 590.394531 672.382812 588.085938 675.183594 585.773438 C 676.019531 585.082031 676.019531 585.082031 676.871094 584.378906 C 677.960938 583.480469 679.050781 582.582031 680.140625 581.683594 C 681.996094 580.152344 683.863281 578.625 685.726562 577.101562 C 689.234375 574.238281 692.730469 571.359375 696.226562 568.480469 C 701.089844 564.46875 705.964844 560.46875 710.847656 556.480469 C 712.222656 555.355469 713.597656 554.230469 714.972656 553.105469 C 720.46875 548.609375 725.96875 544.109375 731.46875 539.609375 C 732.152344 539.046875 732.839844 538.488281 733.546875 537.90625 C 734.863281 536.832031 736.179688 535.753906 737.496094 534.679688 C 742.304688 530.75 747.101562 526.804688 751.894531 522.855469 C 755.46875 519.910156 759.046875 516.972656 762.632812 514.046875 C 765.496094 511.699219 768.351562 509.347656 771.210938 506.992188 C 774.703125 504.113281 778.199219 501.234375 781.707031 498.367188 C 787.34375 493.761719 792.960938 489.128906 798.578125 484.496094 C 805.566406 478.738281 812.558594 472.980469 819.574219 467.25 C 820.949219 466.125 822.324219 465 823.699219 463.875 C 825.707031 462.230469 827.714844 460.589844 829.726562 458.945312 C 834.535156 455.015625 839.332031 451.070312 844.125 447.121094 C 847.699219 444.175781 851.277344 441.242188 854.863281 438.3125 C 857.726562 435.964844 860.582031 433.613281 863.441406 431.257812 C 867.027344 428.300781 870.617188 425.34375 874.21875 422.402344 C 874.851562 421.882812 875.488281 421.363281 876.140625 420.828125 C 877.511719 419.710938 878.886719 418.59375 880.265625 417.484375 C 880.992188 416.894531 881.71875 416.304688 882.46875 415.699219 C 883.113281 415.175781 883.761719 414.65625 884.429688 414.117188 C 886.414062 412.425781 888.238281 410.628906 890.058594 408.761719 C 890.304688 408.515625 890.554688 408.269531 890.808594 408.011719 Z M 890.808594 408.011719 " fill-opacity="1" fill-rule="nonzero"/><path fill="#672974" d="M 850.316406 649.460938 C 855.019531 649.460938 859.71875 649.460938 864.5625 649.460938 C 864.648438 658.621094 864.71875 667.777344 864.757812 676.9375 C 864.777344 681.191406 864.804688 685.441406 864.847656 689.695312 C 864.886719 693.804688 864.910156 697.910156 864.921875 702.019531 C 864.925781 703.585938 864.941406 705.148438 864.960938 706.710938 C 865.171875 723.535156 865.171875 723.535156 859.5 729.601562 C 854.191406 734.714844 848.722656 735.289062 841.648438 735.269531 C 840.410156 735.273438 840.410156 735.273438 839.144531 735.28125 C 837.398438 735.285156 835.65625 735.285156 833.914062 735.277344 C 831.253906 735.269531 828.597656 735.292969 825.941406 735.316406 C 824.242188 735.316406 822.542969 735.316406 820.84375 735.316406 C 820.054688 735.324219 819.265625 735.332031 818.453125 735.339844 C 812.777344 735.289062 808.863281 734.292969 804.421875 730.550781 C 804.023438 730.082031 803.628906 729.613281 803.21875 729.132812 C 802.8125 728.671875 802.40625 728.210938 801.984375 727.738281 C 798.878906 722.925781 798.234375 718.429688 798.253906 712.847656 C 798.25 712.1875 798.246094 711.527344 798.242188 710.847656 C 798.238281 709.460938 798.238281 708.074219 798.242188 706.6875 C 798.25 704.578125 798.230469 702.472656 798.207031 700.367188 C 798.203125 699.011719 798.203125 697.65625 798.207031 696.304688 C 798.199219 695.679688 798.191406 695.058594 798.179688 694.414062 C 798.242188 689.210938 799.753906 685.371094 803.109375 681.386719 C 803.640625 680.917969 804.171875 680.453125 804.71875 679.96875 C 805.238281 679.492188 805.761719 679.015625 806.296875 678.527344 C 811.292969 675.273438 816.449219 674.625 822.296875 674.734375 C 823.28125 674.742188 823.28125 674.742188 824.285156 674.746094 C 826.355469 674.757812 828.421875 674.785156 830.492188 674.816406 C 831.90625 674.828125 833.320312 674.835938 834.734375 674.847656 C 838.179688 674.871094 841.625 674.910156 845.070312 674.957031 C 845.089844 677.316406 845.105469 679.671875 845.117188 682.03125 C 845.121094 682.707031 845.128906 683.378906 845.132812 684.074219 C 845.136719 684.714844 845.140625 685.351562 845.140625 686.011719 C 845.144531 686.605469 845.148438 687.199219 845.152344 687.808594 C 845.070312 689.203125 845.070312 689.203125 844.320312 689.953125 C 842.175781 690.046875 840.046875 690.09375 837.902344 690.109375 C 836.578125 690.132812 835.253906 690.152344 833.929688 690.175781 C 831.835938 690.207031 829.738281 690.234375 827.640625 690.253906 C 825.625 690.273438 823.609375 690.308594 821.59375 690.34375 C 820.960938 690.347656 820.332031 690.351562 819.683594 690.351562 C 817.734375 690.367188 817.734375 690.367188 815.074219 690.703125 C 813.273438 693.40625 813.359375 695.382812 813.375 698.503906 C 813.375 699.046875 813.375 699.585938 813.371094 700.144531 C 813.371094 701.285156 813.375 702.429688 813.378906 703.570312 C 813.386719 705.316406 813.378906 707.066406 813.371094 708.8125 C 813.371094 709.921875 813.375 711.03125 813.375 712.144531 C 813.375 712.664062 813.371094 713.1875 813.367188 713.726562 C 813.394531 716.46875 813.511719 717.601562 815.074219 719.945312 C 816.507812 720.289062 816.507812 720.289062 818.167969 720.238281 C 819.125 720.246094 819.125 720.246094 820.101562 720.257812 C 820.792969 720.253906 821.484375 720.25 822.195312 720.246094 C 823.257812 720.25 823.257812 720.25 824.339844 720.25 C 825.839844 720.253906 827.339844 720.25 828.839844 720.238281 C 831.136719 720.226562 833.433594 720.238281 835.730469 720.253906 C 837.1875 720.253906 838.644531 720.25 840.097656 720.246094 C 841.132812 720.25 841.132812 720.25 842.1875 720.257812 C 842.828125 720.25 843.464844 720.246094 844.125 720.238281 C 844.972656 720.234375 844.972656 720.234375 845.832031 720.230469 C 847.757812 719.863281 848.339844 719.199219 849.566406 717.695312 C 849.800781 715.472656 849.894531 713.402344 849.890625 711.175781 C 849.898438 710.511719 849.90625 709.847656 849.914062 709.160156 C 849.9375 706.957031 849.945312 704.753906 849.953125 702.550781 C 849.964844 701.023438 849.976562 699.496094 849.992188 697.96875 C 850.027344 693.949219 850.050781 689.929688 850.070312 685.910156 C 850.09375 681.808594 850.125 677.707031 850.160156 673.605469 C 850.226562 665.558594 850.273438 657.511719 850.316406 649.460938 Z M 850.316406 649.460938 " fill-opacity="1" fill-rule="nonzero"/><path fill="#03e3fd" d="M 401.164062 196.558594 C 401.660156 196.558594 402.152344 196.558594 402.664062 196.558594 C 403.4375 205.957031 403.4375 205.957031 400.929688 209.492188 C 397.679688 213.128906 393.746094 216.0625 389.917969 219.054688 C 388.539062 220.175781 387.164062 221.300781 385.792969 222.429688 C 383.785156 224.070312 381.773438 225.714844 379.765625 227.359375 C 374.953125 231.289062 370.160156 235.234375 365.367188 239.183594 C 361.792969 242.128906 358.210938 245.0625 354.628906 247.992188 C 351.761719 250.339844 348.90625 252.691406 346.050781 255.046875 C 341.917969 258.453125 337.777344 261.851562 333.632812 265.238281 C 330.769531 267.585938 327.910156 269.9375 325.054688 272.292969 C 319.5625 276.816406 314.058594 281.328125 308.546875 285.832031 C 303.730469 289.765625 298.929688 293.71875 294.132812 297.671875 C 290.558594 300.617188 286.976562 303.550781 283.390625 306.480469 C 280.527344 308.824219 277.671875 311.179688 274.816406 313.535156 C 270.683594 316.9375 266.542969 320.339844 262.398438 323.726562 C 259.535156 326.070312 256.675781 328.425781 253.820312 330.78125 C 248.328125 335.304688 242.824219 339.816406 237.3125 344.316406 C 232.496094 348.253906 227.695312 352.203125 222.898438 356.160156 C 219.324219 359.101562 215.742188 362.039062 212.15625 364.96875 C 209.292969 367.3125 206.4375 369.667969 203.582031 372.019531 C 198.089844 376.546875 192.585938 381.058594 187.074219 385.558594 C 183.378906 388.578125 179.691406 391.605469 176.007812 394.640625 C 174.898438 395.554688 173.789062 396.46875 172.675781 397.382812 C 170.261719 399.371094 167.847656 401.359375 165.445312 403.359375 C 164.730469 403.953125 164.015625 404.542969 163.277344 405.15625 C 162.367188 405.914062 162.367188 405.914062 161.4375 406.6875 C 159.683594 408.035156 157.886719 409.164062 155.964844 410.261719 C 153.988281 408.777344 152.007812 407.292969 149.96875 405.765625 C 151.542969 402.613281 153.3125 400.988281 155.964844 398.828125 C 156.402344 398.464844 156.84375 398.101562 157.292969 397.726562 C 160.460938 395.105469 163.667969 392.527344 166.890625 389.96875 C 172.996094 385.109375 178.992188 380.101562 185.015625 375.136719 C 188.589844 372.191406 192.167969 369.257812 195.753906 366.328125 C 198.617188 363.980469 201.476562 361.628906 204.332031 359.273438 C 209.824219 354.75 215.328125 350.238281 220.839844 345.734375 C 225.652344 341.800781 230.457031 337.847656 235.253906 333.894531 C 238.828125 330.949219 242.410156 328.015625 245.992188 325.085938 C 248.855469 322.738281 251.714844 320.386719 254.570312 318.03125 C 260.0625 313.507812 265.566406 308.996094 271.078125 304.496094 C 275.894531 300.558594 280.695312 296.609375 285.496094 292.652344 C 289.066406 289.710938 292.648438 286.773438 296.234375 283.84375 C 299.097656 281.5 301.953125 279.144531 304.808594 276.792969 C 308.941406 273.386719 313.082031 269.988281 317.230469 266.597656 C 320.09375 264.253906 322.949219 261.898438 325.804688 259.546875 C 331.296875 255.019531 336.800781 250.507812 342.3125 246.007812 C 347.128906 242.070312 351.929688 238.121094 356.730469 234.164062 C 360.300781 231.222656 363.882812 228.285156 367.46875 225.355469 C 370.890625 222.554688 374.304688 219.738281 377.71875 216.921875 C 380.714844 214.453125 383.71875 211.992188 386.730469 209.539062 C 389.835938 206.996094 392.929688 204.433594 396.007812 201.855469 C 396.4375 201.5 396.863281 201.144531 397.300781 200.777344 C 399.554688 198.9375 399.554688 198.9375 401.164062 196.558594 Z M 401.164062 196.558594 " fill-opacity="1" fill-rule="nonzero"/><path fill="#823cb0" d="M 609.617188 196.558594 C 610.140625 197.09375 610.664062 197.632812 611.203125 198.183594 C 613.367188 200.34375 615.664062 202.328125 618.007812 204.292969 C 618.648438 204.832031 618.648438 204.832031 619.304688 205.382812 C 622.429688 208.003906 625.59375 210.566406 628.789062 213.101562 C 634.894531 217.960938 640.886719 222.964844 646.90625 227.929688 C 651.214844 231.476562 655.535156 235.019531 659.859375 238.550781 C 665.304688 242.996094 670.734375 247.460938 676.160156 251.929688 C 679.734375 254.875 683.3125 257.808594 686.894531 260.738281 C 688.660156 262.179688 690.417969 263.628906 692.175781 265.078125 C 698.851562 270.601562 698.851562 270.601562 705.597656 276.042969 C 710.660156 280.0625 715.625 284.203125 720.609375 288.316406 C 723.847656 290.980469 727.09375 293.632812 730.34375 296.289062 C 735.789062 300.734375 741.21875 305.199219 746.644531 309.667969 C 749.582031 312.085938 752.519531 314.5 755.460938 316.90625 C 759.53125 320.234375 763.585938 323.574219 767.640625 326.917969 C 770.578125 329.335938 773.515625 331.75 776.457031 334.152344 C 779.964844 337.019531 783.460938 339.898438 786.957031 342.777344 C 791.820312 346.785156 796.695312 350.785156 801.578125 354.773438 C 807.023438 359.222656 812.453125 363.6875 817.878906 368.15625 C 820.816406 370.574219 823.753906 372.988281 826.699219 375.394531 C 830.203125 378.261719 833.699219 381.136719 837.195312 384.019531 C 840.785156 386.976562 844.375 389.929688 847.972656 392.875 C 848.605469 393.394531 849.238281 393.910156 849.886719 394.445312 C 851.28125 395.582031 852.6875 396.703125 854.097656 397.820312 C 855.21875 398.714844 855.21875 398.714844 856.363281 399.625 C 857.035156 400.15625 857.710938 400.6875 858.40625 401.234375 C 860.066406 402.765625 860.066406 402.765625 861.566406 405.765625 C 859.832031 407.25 858.101562 408.734375 856.316406 410.261719 C 853.417969 408.8125 851.054688 407.109375 848.535156 405.109375 C 847.847656 404.5625 847.847656 404.5625 847.140625 404.007812 C 843.433594 401.054688 839.839844 397.984375 836.261719 394.878906 C 833.265625 392.289062 830.203125 389.816406 827.074219 387.394531 C 823.023438 384.257812 819.128906 380.984375 815.261719 377.628906 C 812.269531 375.042969 809.207031 372.570312 806.078125 370.144531 C 801.960938 366.957031 797.988281 363.628906 794.050781 360.222656 C 791.070312 357.648438 788.039062 355.160156 784.945312 352.714844 C 782.109375 350.449219 779.308594 348.136719 776.503906 345.824219 C 775.949219 345.363281 775.390625 344.902344 774.816406 344.429688 C 773.726562 343.53125 772.636719 342.632812 771.550781 341.734375 C 769.691406 340.203125 767.828125 338.675781 765.960938 337.152344 C 762.453125 334.289062 758.957031 331.410156 755.460938 328.53125 C 750.597656 324.519531 745.722656 320.519531 740.839844 316.53125 C 735.394531 312.085938 729.964844 307.621094 724.539062 303.152344 C 721.605469 300.734375 718.667969 298.320312 715.722656 295.914062 C 711.652344 292.585938 707.597656 289.246094 703.542969 285.902344 C 700.609375 283.484375 697.671875 281.070312 694.726562 278.664062 C 691.21875 275.800781 687.722656 272.921875 684.226562 270.042969 C 679.363281 266.035156 674.488281 262.035156 669.605469 258.046875 C 664.160156 253.597656 658.730469 249.132812 653.304688 244.664062 C 650.371094 242.246094 647.429688 239.832031 644.488281 237.425781 C 640.980469 234.558594 637.484375 231.679688 633.988281 228.800781 C 630.398438 225.84375 626.808594 222.890625 623.210938 219.945312 C 622.578125 219.425781 621.945312 218.902344 621.292969 218.367188 C 619.914062 217.246094 618.515625 216.144531 617.113281 215.050781 C 616.371094 214.472656 615.628906 213.890625 614.867188 213.289062 C 614.203125 212.777344 613.539062 212.261719 612.851562 211.734375 C 610.28125 209.246094 609.019531 206.90625 608.625 203.339844 C 608.644531 202.632812 608.660156 201.925781 608.683594 201.199219 C 608.695312 200.480469 608.703125 199.765625 608.71875 199.027344 C 608.871094 197.308594 608.871094 197.308594 609.617188 196.558594 Z M 609.617188 196.558594 " fill-opacity="1" fill-rule="nonzero"/><path fill="#672974" d="M 665.722656 655.09375 C 667.007812 655.101562 668.289062 655.105469 669.574219 655.109375 C 672.929688 655.125 676.285156 655.160156 679.640625 655.203125 C 683.074219 655.242188 686.507812 655.257812 689.941406 655.277344 C 696.660156 655.316406 703.378906 655.382812 710.097656 655.460938 C 710.097656 660.160156 710.097656 664.863281 710.097656 669.707031 C 708.457031 669.714844 706.8125 669.722656 705.121094 669.726562 C 699.695312 669.753906 694.269531 669.796875 688.84375 669.84375 C 685.550781 669.875 682.261719 669.898438 678.972656 669.910156 C 675.796875 669.921875 672.621094 669.949219 669.449219 669.984375 C 668.238281 669.996094 667.023438 670 665.8125 670 C 664.117188 670.003906 662.421875 670.023438 660.726562 670.046875 C 659.277344 670.058594 659.277344 670.058594 657.796875 670.066406 C 655.335938 670.28125 655.335938 670.28125 653.546875 671.714844 C 652.070312 673.882812 651.984375 675.125 651.984375 677.742188 C 651.972656 679.03125 651.972656 679.03125 651.960938 680.351562 C 651.976562 681.738281 651.976562 681.738281 651.988281 683.15625 C 651.988281 684.109375 651.984375 685.066406 651.984375 686.046875 C 651.984375 688.066406 651.992188 690.082031 652.011719 692.097656 C 652.03125 694.679688 652.03125 697.261719 652.019531 699.84375 C 652.011719 702.3125 652.023438 704.777344 652.035156 707.246094 C 652.03125 708.171875 652.03125 709.097656 652.027344 710.054688 C 652.039062 710.914062 652.046875 711.773438 652.058594 712.660156 C 652.0625 713.417969 652.066406 714.175781 652.070312 714.957031 C 652.417969 717.351562 652.777344 718.34375 654.609375 719.945312 C 657.074219 720.414062 657.074219 720.414062 659.957031 720.355469 C 660.769531 720.367188 660.769531 720.367188 661.597656 720.378906 C 663.390625 720.402344 665.175781 720.402344 666.96875 720.402344 C 668.207031 720.414062 669.449219 720.425781 670.691406 720.441406 C 673.957031 720.472656 677.21875 720.488281 680.484375 720.5 C 683.820312 720.515625 687.152344 720.546875 690.484375 720.574219 C 697.019531 720.632812 703.558594 720.667969 710.097656 720.695312 C 710.097656 725.644531 710.097656 730.59375 710.097656 735.691406 C 703.003906 735.761719 695.914062 735.816406 688.820312 735.847656 C 685.527344 735.863281 682.234375 735.886719 678.9375 735.917969 C 675.753906 735.953125 672.570312 735.96875 669.386719 735.976562 C 668.175781 735.984375 666.96875 735.992188 665.757812 736.011719 C 657.117188 736.121094 648.824219 735.734375 642.1875 729.480469 C 638.730469 725.347656 637.273438 720.707031 637.242188 715.394531 C 637.234375 714.453125 637.226562 713.515625 637.21875 712.546875 C 637.21875 711.519531 637.214844 710.492188 637.210938 709.464844 C 637.207031 708.410156 637.203125 707.351562 637.199219 706.296875 C 637.191406 704.078125 637.1875 701.863281 637.183594 699.644531 C 637.179688 696.816406 637.160156 693.992188 637.140625 691.164062 C 637.125 688.980469 637.121094 686.796875 637.121094 684.613281 C 637.117188 683.570312 637.113281 682.53125 637.101562 681.488281 C 637.039062 674.519531 637.046875 667.515625 641.910156 662.019531 C 648.902344 654.996094 656.367188 654.941406 665.722656 655.09375 Z M 665.722656 655.09375 " fill-opacity="1" fill-rule="nonzero"/><path fill="#cb155b" d="M 446.105469 498.554688 C 451.183594 501.195312 453.824219 503.925781 455.902344 509.242188 C 457.632812 516.964844 456.109375 523.882812 452.03125 530.511719 C 451.097656 531.941406 450.136719 533.339844 449.152344 534.734375 C 448.863281 535.160156 448.570312 535.582031 448.269531 536.019531 C 446.417969 538.679688 444.449219 541.21875 442.40625 543.734375 C 441.945312 544.316406 441.488281 544.898438 441.015625 545.496094 C 431.816406 556.578125 419.632812 563.183594 405.664062 566.230469 C 404.9375 566.398438 404.210938 566.570312 403.460938 566.746094 C 396.351562 567.46875 389.214844 567.554688 382.957031 563.667969 C 382.53125 563.273438 382.105469 562.882812 381.667969 562.480469 C 381.667969 561.738281 381.667969 560.996094 381.667969 560.230469 C 382.3125 560.121094 382.953125 560.011719 383.617188 559.898438 C 392.265625 558.199219 395.648438 555.230469 400.65625 548.199219 C 403.761719 542.730469 405.4375 536.847656 407.023438 530.800781 C 409.851562 520.570312 413.648438 512.246094 421.410156 504.742188 C 421.792969 504.359375 422.179688 503.976562 422.574219 503.582031 C 429.226562 497.496094 437.582031 495.003906 446.105469 498.554688 Z M 446.105469 498.554688 " fill-opacity="1" fill-rule="nonzero"/><path fill="#672974" d="M 916.320312 674.726562 C 917.066406 674.714844 917.816406 674.703125 918.589844 674.691406 C 919.394531 674.6875 920.203125 674.683594 921.035156 674.675781 C 921.871094 674.671875 922.710938 674.664062 923.574219 674.65625 C 925.351562 674.644531 927.128906 674.640625 928.902344 674.636719 C 931.59375 674.628906 934.285156 674.589844 936.976562 674.554688 C 947.804688 674.476562 957.261719 674.695312 966.007812 681.914062 C 972.035156 687.980469 974.296875 695.003906 974.296875 703.410156 C 974.285156 704.230469 974.273438 705.046875 974.261719 705.890625 C 974.257812 706.746094 974.253906 707.601562 974.25 708.484375 C 974.238281 711.195312 974.210938 713.90625 974.179688 716.617188 C 974.171875 718.464844 974.160156 720.3125 974.152344 722.160156 C 974.125 726.671875 974.089844 731.183594 974.039062 735.691406 C 971.683594 735.714844 969.324219 735.726562 966.964844 735.738281 C 966.292969 735.746094 965.617188 735.753906 964.925781 735.757812 C 963.964844 735.761719 963.964844 735.761719 962.984375 735.765625 C 962.390625 735.769531 961.796875 735.773438 961.1875 735.777344 C 959.792969 735.691406 959.792969 735.691406 959.042969 734.941406 C 958.96875 733.792969 958.941406 732.640625 958.9375 731.488281 C 958.929688 730.382812 958.929688 730.382812 958.921875 729.257812 C 958.917969 728.457031 958.914062 727.652344 958.914062 726.828125 C 958.894531 725.140625 958.875 723.457031 958.859375 721.769531 C 958.832031 719.101562 958.808594 716.433594 958.800781 713.765625 C 958.789062 711.199219 958.757812 708.632812 958.726562 706.066406 C 958.726562 705.269531 958.726562 704.476562 958.730469 703.65625 C 958.652344 699.113281 958.347656 696.402344 955.296875 692.953125 C 951.167969 689.960938 947.316406 689.824219 942.347656 689.714844 C 941.820312 689.703125 941.292969 689.6875 940.75 689.671875 C 938.785156 689.621094 936.824219 689.578125 934.863281 689.53125 C 928.273438 689.367188 928.273438 689.367188 921.550781 689.203125 C 921.550781 704.296875 921.550781 719.390625 921.550781 734.941406 C 916.851562 734.941406 912.148438 734.941406 907.304688 734.941406 C 907.253906 727.871094 907.214844 720.796875 907.1875 713.726562 C 907.175781 710.441406 907.160156 707.160156 907.136719 703.875 C 907.109375 700.703125 907.097656 697.535156 907.09375 694.363281 C 907.085938 693.15625 907.078125 691.945312 907.066406 690.738281 C 907.050781 689.042969 907.046875 687.351562 907.050781 685.65625 C 907.042969 684.691406 907.039062 683.726562 907.035156 682.734375 C 907.328125 679.984375 907.839844 678.609375 909.554688 676.457031 C 911.78125 674.917969 913.652344 674.757812 916.320312 674.726562 Z M 916.320312 674.726562 " fill-opacity="1" fill-rule="nonzero"/><path fill="#0de5fe" d="M 587.125 655.460938 C 592.074219 655.460938 597.023438 655.460938 602.121094 655.460938 C 602.121094 661.894531 602.121094 668.328125 602.121094 674.957031 C 610.535156 674.957031 618.945312 674.957031 627.617188 674.957031 C 627.628906 677.292969 627.644531 679.625 627.664062 682.03125 C 627.667969 682.769531 627.675781 683.507812 627.683594 684.265625 C 627.683594 684.84375 627.6875 685.417969 627.6875 686.011719 C 627.691406 686.605469 627.695312 687.199219 627.699219 687.808594 C 627.617188 689.203125 627.617188 689.203125 626.867188 689.953125 C 625.03125 690.019531 623.214844 690.039062 621.378906 690.027344 C 620.894531 690.023438 620.40625 690.023438 619.90625 690.023438 C 618.085938 690.019531 616.265625 690.007812 614.445312 690 C 608.34375 689.976562 608.34375 689.976562 602.121094 689.953125 C 602.121094 705.046875 602.121094 720.140625 602.121094 735.691406 C 597.171875 735.691406 592.222656 735.691406 587.125 735.691406 C 587.125 720.597656 587.125 705.503906 587.125 689.953125 C 580.9375 689.953125 574.75 689.953125 568.378906 689.953125 C 568.378906 685.003906 568.378906 680.054688 568.378906 674.957031 C 574.5625 674.957031 580.75 674.957031 587.125 674.957031 C 587.125 668.523438 587.125 662.089844 587.125 655.460938 Z M 587.125 655.460938 " fill-opacity="1" fill-rule="nonzero"/><path fill="#fefbfa" d="M 456.1875 670.164062 C 456.894531 670.167969 457.597656 670.171875 458.324219 670.175781 C 460.550781 670.195312 462.769531 670.230469 464.992188 670.269531 C 466.511719 670.285156 468.03125 670.296875 469.550781 670.308594 C 473.25 670.339844 476.949219 670.398438 480.648438 670.457031 C 480.648438 680.601562 480.648438 690.746094 480.648438 701.199219 C 464.066406 701.199219 447.488281 701.199219 430.40625 701.199219 C 430.40625 683.984375 430.40625 683.984375 436.277344 677.097656 C 441.914062 671.652344 448.550781 669.988281 456.1875 670.164062 Z M 456.1875 670.164062 " fill-opacity="1" fill-rule="nonzero"/><path fill="#0ee5fe" d="M 535.011719 674.734375 C 535.816406 674.738281 536.625 674.742188 537.457031 674.746094 C 540.015625 674.757812 542.574219 674.785156 545.132812 674.816406 C 546.875 674.828125 548.617188 674.835938 550.363281 674.847656 C 554.617188 674.871094 558.875 674.910156 563.128906 674.957031 C 563.128906 679.90625 563.128906 684.855469 563.128906 689.953125 C 561.503906 689.976562 561.503906 689.976562 559.847656 689.996094 C 555.84375 690.054688 551.839844 690.121094 547.832031 690.191406 C 546.097656 690.21875 544.363281 690.246094 542.628906 690.269531 C 540.136719 690.304688 537.648438 690.347656 535.15625 690.390625 C 534.378906 690.402344 533.597656 690.410156 532.792969 690.417969 C 532.074219 690.433594 531.351562 690.449219 530.609375 690.464844 C 529.976562 690.472656 529.339844 690.484375 528.683594 690.492188 C 526.96875 690.566406 526.96875 690.566406 525.636719 692.203125 C 525.394531 694.078125 525.394531 694.078125 525.410156 696.285156 C 525.398438 697.136719 525.386719 697.992188 525.371094 698.871094 C 525.367188 699.792969 525.359375 700.71875 525.351562 701.671875 C 525.339844 702.617188 525.328125 703.5625 525.3125 704.535156 C 525.28125 707.046875 525.253906 709.5625 525.230469 712.074219 C 525.195312 715.621094 525.152344 719.167969 525.109375 722.710938 C 525.085938 724.601562 525.0625 726.492188 525.046875 728.378906 C 525.039062 729.230469 525.027344 730.082031 525.015625 730.957031 C 525.011719 731.710938 525.003906 732.464844 524.996094 733.242188 C 524.886719 734.941406 524.886719 734.941406 524.136719 735.691406 C 523.074219 735.757812 522.011719 735.773438 520.949219 735.765625 C 520.308594 735.761719 519.667969 735.761719 519.007812 735.757812 C 518.335938 735.753906 517.660156 735.746094 516.96875 735.738281 C 516.289062 735.738281 515.613281 735.734375 514.917969 735.730469 C 513.242188 735.71875 511.566406 735.707031 509.890625 735.691406 C 509.785156 729.984375 509.707031 724.273438 509.65625 718.5625 C 509.632812 715.90625 509.601562 713.253906 509.550781 710.601562 C 509.492188 707.542969 509.472656 704.484375 509.453125 701.421875 C 509.429688 700.484375 509.40625 699.546875 509.378906 698.582031 C 509.378906 691.613281 510.835938 685.277344 515.90625 680.179688 C 521.722656 675.378906 527.730469 674.625 535.011719 674.734375 Z M 535.011719 674.734375 " fill-opacity="1" fill-rule="nonzero"/><path fill="#ea0d64" d="M 446.902344 498.742188 C 446.417969 514.261719 438.207031 525.082031 428.15625 536.234375 C 427.6875 536.761719 427.214844 537.285156 426.730469 537.824219 C 418.859375 546.144531 408.457031 550.957031 397.414062 553.480469 C 398.476562 551.25 399.722656 549.226562 401.070312 547.15625 C 404.183594 541.992188 405.585938 536.453125 407.078125 530.648438 C 409.777344 520.476562 413.785156 512.113281 421.410156 504.742188 C 421.792969 504.359375 422.179688 503.976562 422.574219 503.582031 C 429.699219 497.0625 437.882812 495.421875 446.902344 498.742188 Z M 446.902344 498.742188 " fill-opacity="1" fill-rule="nonzero"/><path fill="#fdf9f8" d="M 744.332031 689.554688 C 745.390625 689.550781 745.390625 689.550781 746.464844 689.546875 C 747.953125 689.542969 749.441406 689.550781 750.929688 689.5625 C 753.207031 689.578125 755.480469 689.5625 757.757812 689.542969 C 759.203125 689.542969 760.648438 689.546875 762.09375 689.554688 C 762.773438 689.546875 763.453125 689.542969 764.15625 689.535156 C 767.003906 689.578125 768.804688 689.625 771.261719 691.140625 C 772.734375 693.632812 772.722656 695.472656 772.734375 698.363281 C 772.734375 698.882812 772.738281 699.402344 772.742188 699.9375 C 772.742188 701.03125 772.738281 702.128906 772.726562 703.222656 C 772.710938 704.894531 772.726562 706.5625 772.746094 708.234375 C 772.742188 709.300781 772.738281 710.371094 772.734375 711.4375 C 772.730469 712.402344 772.726562 713.371094 772.722656 714.367188 C 772.25 717.496094 771.804688 718.695312 769.335938 720.695312 C 766.917969 721.242188 764.5625 721.222656 762.09375 721.195312 C 761.390625 721.199219 760.6875 721.203125 759.960938 721.203125 C 758.472656 721.207031 756.984375 721.199219 755.496094 721.183594 C 753.222656 721.164062 750.945312 721.183594 748.671875 721.207031 C 747.222656 721.207031 745.777344 721.203125 744.332031 721.195312 C 743.652344 721.203125 742.972656 721.210938 742.269531 721.21875 C 739.175781 721.160156 737.621094 721.125 735.164062 719.132812 C 733.832031 716.414062 733.703125 714.464844 733.695312 711.4375 C 733.691406 710.917969 733.6875 710.398438 733.683594 709.859375 C 733.683594 708.765625 733.6875 707.671875 733.703125 706.578125 C 733.71875 704.90625 733.703125 703.234375 733.683594 701.5625 C 733.683594 700.496094 733.6875 699.429688 733.695312 698.363281 C 733.699219 697.394531 733.699219 696.429688 733.703125 695.4375 C 734.09375 692.953125 734.09375 692.953125 735.164062 691.140625 C 738.128906 689.3125 740.914062 689.523438 744.332031 689.554688 Z M 744.332031 689.554688 " fill-opacity="1" fill-rule="nonzero"/><path fill="#961648" d="M 623.117188 265.542969 C 623.609375 265.542969 624.105469 265.542969 624.617188 265.542969 C 624.21875 270.023438 623.25 273.753906 621.570312 277.917969 C 621.335938 278.507812 621.097656 279.097656 620.855469 279.707031 C 618.707031 285.007812 616.207031 290.078125 613.582031 295.15625 C 612.441406 297.386719 611.328125 299.628906 610.21875 301.875 C 605.144531 312.140625 599.914062 322.292969 594.351562 332.308594 C 592.996094 334.757812 591.65625 337.214844 590.316406 339.671875 C 583.921875 351.394531 577.285156 362.941406 570.410156 374.386719 C 569.289062 376.253906 568.171875 378.121094 567.058594 379.992188 C 564.277344 384.664062 561.429688 389.277344 558.503906 393.859375 C 557.214844 395.882812 555.9375 397.917969 554.664062 399.957031 C 549.058594 408.894531 543.183594 417.546875 536.882812 426.007812 C 536.09375 427.082031 535.304688 428.152344 534.511719 429.222656 C 527.761719 438.328125 520.664062 447.003906 512.890625 455.253906 C 512.308594 455.875 511.726562 456.496094 511.128906 457.136719 C 507.316406 461.097656 503.246094 464.25 498.644531 467.25 C 497.902344 467.746094 497.160156 468.242188 496.394531 468.75 C 493.449219 468.535156 492.007812 467.695312 489.945312 465.652344 C 486.34375 462.34375 482.34375 460.015625 478.117188 457.597656 C 477.367188 457.160156 476.621094 456.726562 475.851562 456.277344 C 472.292969 454.191406 472.292969 454.191406 468.648438 452.253906 C 469.019531 450.769531 469.019531 450.769531 469.398438 449.253906 C 473.378906 449.609375 476.230469 451.753906 479.476562 453.894531 C 480.027344 454.246094 480.582031 454.597656 481.152344 454.960938 C 483.832031 456.707031 486.117188 458.394531 488.265625 460.773438 C 490.203125 462.921875 490.203125 462.921875 492.664062 463.183594 C 506.910156 460.414062 520.148438 441.082031 528.335938 430.375 C 529.34375 429.066406 530.359375 427.761719 531.382812 426.464844 C 539.308594 416.238281 546.304688 405.335938 553.382812 394.515625 C 553.816406 393.847656 554.253906 393.179688 554.707031 392.492188 C 565.523438 375.859375 575.492188 358.589844 585.132812 341.253906 C 586.003906 339.695312 586.871094 338.136719 587.746094 336.582031 C 595.359375 322.988281 602.628906 309.242188 609.6875 295.351562 C 610.988281 292.789062 612.304688 290.230469 613.625 287.675781 C 617.328125 280.441406 620.710938 273.324219 623.117188 265.542969 Z M 623.117188 265.542969 " fill-opacity="1" fill-rule="nonzero"/><path fill="#672974" d="M 878.8125 674.957031 C 883.511719 674.957031 888.214844 674.957031 893.058594 674.957031 C 893.058594 695 893.058594 715.042969 893.058594 735.691406 C 888.355469 735.691406 883.65625 735.691406 878.8125 735.691406 C 878.8125 715.648438 878.8125 695.605469 878.8125 674.957031 Z M 878.8125 674.957031 " fill-opacity="1" fill-rule="nonzero"/><path fill="#f58697" d="M 625.367188 264.792969 C 625.117188 265.535156 624.871094 266.277344 624.617188 267.042969 C 624.617188 266.546875 624.617188 266.054688 624.617188 265.542969 C 605.339844 274.742188 589.175781 287.917969 574.222656 303.035156 C 572.910156 304.363281 571.59375 305.679688 570.273438 307 C 565.988281 311.300781 561.792969 315.628906 557.878906 320.28125 C 557.203125 321.066406 556.53125 321.847656 555.851562 322.632812 C 551.273438 328.011719 546.847656 333.492188 542.515625 339.074219 C 541.308594 340.625 540.089844 342.171875 538.875 343.71875 C 527.714844 357.914062 517.589844 372.699219 507.628906 387.753906 C 505.984375 390.246094 504.332031 392.734375 502.667969 395.214844 C 498.8125 400.960938 495.046875 406.75 491.425781 412.652344 C 490.921875 413.46875 490.421875 414.285156 489.90625 415.128906 C 482.460938 427.292969 475.433594 439.710938 468.648438 452.253906 C 469.230469 452.40625 469.808594 452.554688 470.40625 452.710938 C 474.238281 454.167969 477.550781 456.277344 481.023438 458.441406 C 481.714844 458.859375 482.40625 459.28125 483.121094 459.714844 C 487.0625 462.152344 490.230469 464.621094 493.394531 468 C 494.136719 468.496094 494.878906 468.988281 495.644531 469.5 C 493.722656 470.203125 493.722656 470.203125 491.144531 470.25 C 490.046875 469.367188 490.046875 469.367188 488.894531 468.09375 C 482.601562 461.136719 473.019531 456.78125 464.898438 452.253906 C 466.070312 448.171875 467.949219 444.6875 470.007812 441.007812 C 470.371094 440.355469 470.734375 439.703125 471.105469 439.03125 C 473.835938 434.140625 476.636719 429.289062 479.476562 424.460938 C 479.832031 423.855469 480.1875 423.246094 480.558594 422.617188 C 487.308594 411.234375 494.554688 400.148438 501.90625 389.144531 C 503.144531 387.296875 504.375 385.441406 505.609375 383.589844 C 512.761719 372.855469 520.058594 362.230469 527.933594 352.007812 C 528.441406 351.347656 528.949219 350.683594 529.472656 350.003906 C 530.941406 348.09375 532.410156 346.183594 533.886719 344.277344 C 534.28125 343.761719 534.679688 343.246094 535.089844 342.714844 C 539.683594 336.765625 544.429688 330.96875 549.324219 325.265625 C 550.398438 324.011719 551.464844 322.746094 552.53125 321.484375 C 560.433594 312.136719 568.597656 302.5 577.9375 294.554688 C 579.609375 293.121094 581.242188 291.675781 582.839844 290.160156 C 592.628906 280.898438 603.636719 273.183594 615.617188 267.042969 C 616.675781 266.5 616.675781 266.5 617.757812 265.941406 C 620.617188 264.5625 622.324219 263.785156 625.367188 264.792969 Z M 625.367188 264.792969 " fill-opacity="1" fill-rule="nonzero"/><path fill="#cc155c" d="M 459.652344 459.003906 C 460.144531 459.003906 460.640625 459.003906 461.152344 459.003906 C 461.304688 459.976562 461.460938 460.949219 461.621094 461.953125 C 462.890625 467.53125 465.683594 471.710938 470.382812 474.984375 C 473.660156 476.984375 477.089844 478.566406 480.648438 479.996094 C 479.710938 487.339844 471.082031 492.214844 465.648438 496.496094 C 464.890625 497.117188 464.890625 497.117188 464.113281 497.753906 C 462.113281 499.320312 460.632812 500.207031 458.105469 500.617188 C 452.859375 499.726562 449.753906 496.675781 445.972656 493.15625 C 444.128906 490.484375 444.175781 489.214844 444.65625 485.996094 C 445.722656 483.21875 447.0625 480.613281 448.449219 477.984375 C 449.011719 476.890625 449.011719 476.890625 449.585938 475.773438 C 456.800781 461.851562 456.800781 461.851562 459.652344 459.003906 Z M 459.652344 459.003906 " fill-opacity="1" fill-rule="nonzero"/><path fill="#eb0f65" d="M 459.652344 459.003906 C 460.144531 459.003906 460.640625 459.003906 461.152344 459.003906 C 461.304688 459.976562 461.460938 460.949219 461.621094 461.953125 C 462.945312 467.933594 466.59375 472.070312 470.898438 476.25 C 468.910156 477.886719 466.917969 479.519531 464.917969 481.144531 C 463.519531 482.289062 462.132812 483.441406 460.757812 484.613281 C 456.574219 488.097656 456.574219 488.097656 453.558594 488.761719 C 450.679688 488.074219 448.648438 486.84375 446.152344 485.246094 C 446.585938 482.640625 447.238281 480.578125 448.484375 478.253906 C 448.804688 477.652344 449.125 477.050781 449.453125 476.433594 C 449.953125 475.507812 449.953125 475.507812 450.464844 474.5625 C 450.789062 473.957031 451.113281 473.347656 451.445312 472.726562 C 452.421875 470.894531 453.410156 469.074219 454.402344 467.25 C 454.742188 466.621094 455.082031 465.992188 455.433594 465.34375 C 455.761719 464.738281 456.089844 464.136719 456.429688 463.511719 C 456.871094 462.699219 456.871094 462.699219 457.324219 461.867188 C 458.152344 460.5 458.152344 460.5 459.652344 459.003906 Z M 459.652344 459.003906 " fill-opacity="1" fill-rule="nonzero"/><path fill="#f36373" d="M 612.617188 273.042969 C 613.113281 273.289062 613.609375 273.535156 614.117188 273.792969 C 613.683594 274.175781 613.246094 274.558594 612.796875 274.957031 C 607.957031 279.253906 603.3125 283.710938 598.734375 288.285156 C 597.578125 289.441406 596.414062 290.59375 595.246094 291.746094 C 590.992188 295.976562 587.042969 300.3125 583.292969 305.011719 C 581.671875 307.039062 579.976562 308.953125 578.21875 310.863281 C 576.316406 312.933594 574.527344 315.003906 572.878906 317.28125 C 571.640625 317.035156 570.402344 316.789062 569.128906 316.53125 C 568.628906 314.824219 568.628906 314.824219 568.378906 312.785156 C 569.117188 311.445312 569.117188 311.445312 570.359375 310.15625 C 571.089844 309.382812 571.089844 309.382812 571.835938 308.59375 C 572.425781 307.996094 573.019531 307.398438 573.625 306.785156 C 574.335938 306.050781 575.046875 305.320312 575.757812 304.585938 C 577.789062 302.5 579.839844 300.433594 581.898438 298.375 C 583.179688 297.09375 584.449219 295.804688 585.722656 294.519531 C 592.011719 288.199219 598.585938 282.445312 605.824219 277.214844 C 606.808594 276.496094 606.808594 276.496094 607.8125 275.761719 C 609.390625 274.695312 610.84375 273.742188 612.617188 273.042969 Z M 612.617188 273.042969 " fill-opacity="1" fill-rule="nonzero"/><path fill="#6f357b" d="M 878.8125 649.460938 C 883.761719 649.460938 888.710938 649.460938 893.808594 649.460938 C 893.808594 653.914062 893.808594 658.371094 893.808594 662.957031 C 888.859375 662.957031 883.910156 662.957031 878.8125 662.957031 C 878.8125 658.503906 878.8125 654.050781 878.8125 649.460938 Z M 878.8125 649.460938 " fill-opacity="1" fill-rule="nonzero"/><path fill="#fde2d2" d="M 428.15625 498.742188 C 427.289062 501.34375 426.472656 501.628906 424.261719 503.039062 C 413.5 510.609375 409.292969 523.351562 406.460938 535.625 C 404.296875 544.808594 399.464844 553.414062 391.414062 558.730469 C 388.253906 559.90625 385.042969 560.441406 381.667969 560.230469 C 381.914062 561.21875 382.164062 562.210938 382.417969 563.230469 C 381.921875 563.230469 381.429688 563.230469 380.917969 563.230469 C 380.546875 561.375 380.546875 561.375 380.167969 559.480469 C 380.695312 559.324219 381.21875 559.167969 381.761719 559.007812 C 387.035156 557.296875 390.574219 555.210938 394.414062 551.234375 C 394.816406 550.847656 395.214844 550.464844 395.625 550.070312 C 401.277344 544.183594 403.554688 536.296875 405.371094 528.546875 C 407.136719 521.027344 409.929688 515.34375 414.660156 509.242188 C 415.078125 508.699219 415.496094 508.15625 415.929688 507.59375 C 418.730469 504.175781 423.40625 498.742188 428.15625 498.742188 Z M 428.15625 498.742188 " fill-opacity="1" fill-rule="nonzero"/><path fill="#f36273" d="M 565.941406 317.703125 C 567.628906 318.03125 567.628906 318.03125 568.378906 318.78125 C 568.75 321.039062 568.785156 322.625 567.554688 324.609375 C 566.410156 326.03125 565.214844 327.378906 563.972656 328.71875 C 563.554688 329.1875 563.140625 329.652344 562.710938 330.136719 C 558.125 335.261719 558.125 335.261719 555.957031 335.417969 C 554.132812 335.277344 554.132812 335.277344 553.382812 334.527344 C 553.300781 330.585938 554.308594 328.789062 556.941406 325.859375 C 557.484375 325.292969 558.027344 324.730469 558.585938 324.148438 C 559.902344 322.769531 561.015625 321.386719 562.144531 319.859375 C 563.878906 318.03125 563.878906 318.03125 565.941406 317.703125 Z M 565.941406 317.703125 " fill-opacity="1" fill-rule="nonzero"/><path fill="#d0898a" d="M 467.148438 447.003906 C 468.140625 447.5 469.128906 447.996094 470.148438 448.503906 C 469.652344 449.742188 469.160156 450.980469 468.648438 452.253906 C 469.519531 452.480469 469.519531 452.480469 470.40625 452.710938 C 474.238281 454.167969 477.550781 456.277344 481.023438 458.441406 C 481.714844 458.859375 482.40625 459.28125 483.121094 459.714844 C 487.0625 462.152344 490.230469 464.621094 493.394531 468 C 494.136719 468.496094 494.878906 468.988281 495.644531 469.5 C 493.722656 470.203125 493.722656 470.203125 491.144531 470.25 C 490.046875 469.367188 490.046875 469.367188 488.894531 468.09375 C 482.601562 461.136719 473.019531 456.78125 464.898438 452.253906 C 466.304688 447.847656 466.304688 447.847656 467.148438 447.003906 Z M 467.148438 447.003906 " fill-opacity="1" fill-rule="nonzero"/><path fill="#e05f6c" d="M 612.617188 273.042969 C 613.113281 273.289062 613.609375 273.535156 614.117188 273.792969 C 613.699219 274.15625 613.277344 274.523438 612.847656 274.898438 C 607.03125 280.042969 601.574219 285.515625 596.121094 291.039062 C 595.371094 288.789062 595.371094 288.789062 596.261719 286.070312 C 599.398438 280.128906 606.671875 275.886719 612.617188 273.042969 Z M 612.617188 273.042969 " fill-opacity="1" fill-rule="nonzero"/><path fill="#e88a95" d="M 625.367188 264.792969 C 625.117188 265.535156 624.871094 266.277344 624.617188 267.042969 C 624.617188 266.546875 624.617188 266.054688 624.617188 265.542969 C 617.914062 268.742188 611.550781 272.023438 605.460938 276.292969 C 603.882812 277.363281 602.347656 278.242188 600.621094 279.039062 C 602.945312 273.332031 607.875 270.992188 613.085938 268.355469 C 613.730469 268.019531 614.375 267.6875 615.039062 267.34375 C 622.003906 263.75 622.003906 263.75 625.367188 264.792969 Z M 625.367188 264.792969 " fill-opacity="1" fill-rule="nonzero"/><path fill="#fcafb3" d="M 452.152344 469.5 C 452.398438 469.996094 452.648438 470.488281 452.902344 471 C 452.300781 472.464844 452.300781 472.464844 451.335938 474.242188 C 450.996094 474.890625 450.652344 475.539062 450.304688 476.207031 C 449.574219 477.566406 448.84375 478.921875 448.105469 480.277344 C 446.136719 484.042969 444.730469 486.878906 445.40625 491.246094 C 446.148438 492.757812 446.148438 492.757812 447.277344 493.824219 C 447.898438 494.457031 448.515625 495.089844 449.152344 495.746094 C 446.246094 494.558594 444.304688 492.992188 442.40625 490.496094 C 442.378906 484.929688 444.773438 481.226562 447.699219 476.625 C 448.125 475.933594 448.550781 475.246094 448.992188 474.539062 C 450.035156 472.851562 451.089844 471.171875 452.152344 469.5 Z M 452.152344 469.5 " fill-opacity="1" fill-rule="nonzero"/><path fill="#f36173" d="M 549.351562 338.464844 C 551.132812 339.027344 551.132812 339.027344 551.882812 339.777344 C 552.023438 341.605469 552.023438 341.605469 551.882812 343.527344 C 550.382812 345.027344 550.382812 345.027344 548.085938 345.167969 C 545.882812 345.027344 545.882812 345.027344 545.132812 344.277344 C 544.910156 342.152344 544.867188 340.949219 546.023438 339.121094 C 547.382812 338.277344 547.382812 338.277344 549.351562 338.464844 Z M 549.351562 338.464844 " fill-opacity="1" fill-rule="nonzero"/><path fill="#ce1f5e" d="M 616.367188 271.542969 C 616.121094 272.039062 615.871094 272.53125 615.617188 273.042969 C 614.78125 273.320312 613.949219 273.597656 613.085938 273.886719 C 609.261719 275.214844 606.308594 277.550781 603.109375 279.984375 C 601.371094 281.289062 601.371094 281.289062 599.871094 282.039062 C 600.160156 280.296875 600.375 279.285156 601.644531 278.023438 C 602.074219 277.730469 602.5 277.4375 602.9375 277.132812 C 603.402344 276.808594 603.867188 276.484375 604.34375 276.148438 C 604.832031 275.820312 605.320312 275.488281 605.824219 275.152344 C 606.308594 274.8125 606.792969 274.476562 607.292969 274.128906 C 612.386719 270.597656 612.386719 270.597656 616.367188 271.542969 Z M 616.367188 271.542969 " fill-opacity="1" fill-rule="nonzero"/><path fill="#e88591" d="M 470.898438 442.503906 C 471.640625 442.753906 472.382812 443 473.148438 443.253906 C 472.40625 444.988281 471.664062 446.71875 470.898438 448.503906 C 469.042969 447.761719 469.042969 447.761719 467.148438 447.003906 C 468 444.453125 468.625 443.84375 470.898438 442.503906 Z M 470.898438 442.503906 " fill-opacity="1" fill-rule="nonzero"/><path fill="#e5939d" d="M 625.367188 264.792969 C 625.117188 265.535156 624.871094 266.277344 624.617188 267.042969 C 624.617188 266.546875 624.617188 266.054688 624.617188 265.542969 C 623.757812 265.914062 623.757812 265.914062 622.882812 266.292969 C 620.867188 267.042969 620.867188 267.042969 618.617188 267.042969 C 618.617188 266.546875 618.617188 266.054688 618.617188 265.542969 C 621.1875 264.332031 622.652344 263.789062 625.367188 264.792969 Z M 625.367188 264.792969 " fill-opacity="1" fill-rule="nonzero"/><path fill="#fde2d8" d="M 428.15625 498.742188 C 427.410156 500.992188 427.410156 500.992188 425.113281 502.257812 C 424.386719 502.582031 423.65625 502.90625 422.910156 503.242188 C 422.910156 502.5 422.910156 501.757812 422.910156 500.992188 C 426.074219 498.742188 426.074219 498.742188 428.15625 498.742188 Z M 428.15625 498.742188 " fill-opacity="1" fill-rule="nonzero"/></svg>
