<?xml version="1.0" encoding="UTF-8"?>
<svg version="1.1" xmlns="http://www.w3.org/2000/svg" width="1553" height="1252">
<path d="M0 0 C512.49 0 1024.98 0 1553 0 C1553 413.16 1553 826.32 1553 1252 C1040.51 1252 528.02 1252 0 1252 C0 838.84 0 425.68 0 0 Z " fill="#FEFBF9" transform="translate(0,0)"/>
<path d="M0 0 C8.08227627 3.93191819 14.74167267 10.93275816 21.52807617 16.72290039 C25.4631867 20.06405356 29.48389723 23.27379319 33.5625 26.4375 C38.97855288 30.64072352 44.19879804 35.02507956 49.37475586 39.51928711 C53.36847762 42.96929672 57.45299554 46.26855904 61.625 49.5 C67.02252429 53.68067172 72.2205501 58.04390399 77.375 62.51953125 C81.36867126 65.96942138 85.45308671 69.26862966 89.625 72.5 C95.02252429 76.68067172 100.2205501 81.04390399 105.375 85.51953125 C109.36867368 88.96942347 113.45311252 92.26859246 117.625 95.5 C123.11557632 99.75342599 128.41178433 104.19011356 133.6628418 108.73486328 C137.63720743 112.1698308 141.6831466 115.48830812 145.8046875 118.74609375 C149.58963891 121.77090949 153.32536253 124.85392439 157.0625 127.9375 C157.80604736 128.55093262 158.54959473 129.16436523 159.31567383 129.79638672 C160.7675995 130.99427748 162.21950447 132.19219333 163.67138672 133.39013672 C166.15068661 135.43318889 168.6368717 137.467712 171.125 139.5 C176.55164838 143.9339688 181.95906281 148.39113538 187.3671875 152.84765625 C191.28090572 156.07194724 195.19825968 159.29156584 199.125 162.5 C203.8016981 166.32120454 208.46425148 170.15937666 213.125 174 C219.6140275 179.34687337 226.11296209 184.68116158 232.625 190 C239.88662381 195.93107783 247.12993306 201.88388633 254.36572266 207.84643555 C258.27991932 211.07114546 262.19776747 214.29116366 266.125 217.5 C270.8016981 221.32120454 275.46425148 225.15937666 280.125 229 C286.6140275 234.34687337 293.11296209 239.68116158 299.625 245 C305.39182386 249.7101698 311.15051543 254.42985925 316.8972168 259.16455078 C319.11194404 260.98924332 321.32744963 262.81298785 323.54296875 264.63671875 C325.94491468 266.61430432 328.34414464 268.59500123 330.73828125 270.58203125 C336.32881846 275.20170816 342.03904285 279.52347586 347.99609375 283.6640625 C352.44608717 287.61814284 354.72160987 291.46189619 355.19140625 297.33984375 C355.21925426 298.87214335 355.21723554 300.40523586 355.1875 301.9375 C355.17581787 302.73583252 355.16413574 303.53416504 355.15209961 304.35668945 C354.92559332 310.367438 354.13873927 314.72938954 349.625 319 C347.52870102 320.83163598 345.38918345 322.51841076 343.140625 324.16015625 C340.42905528 326.1433074 337.84213226 328.23834241 335.25 330.375 C334.31671875 331.14199219 333.3834375 331.90898438 332.421875 332.69921875 C331.49890625 333.45847656 330.5759375 334.21773437 329.625 335 C327.91701108 336.39625475 326.20867361 337.79208322 324.5 339.1875 C318.95052388 343.72725768 313.41748583 348.28687401 307.88427734 352.84643555 C303.11873259 356.77252838 298.34390943 360.68698864 293.5625 364.59375 C289.74388847 367.72176157 285.93446716 370.86086292 282.125 374 C274.80037717 380.03539294 267.45996785 386.05094241 260.109375 392.0546875 C253.6882012 397.30313196 247.2844752 402.57244379 240.88427734 407.84643555 C236.11873259 411.77252838 231.34390943 415.68698864 226.5625 419.59375 C222.74388852 422.72176153 218.93445577 425.86084917 215.125 429 C209.61298441 433.54213132 204.0933902 438.07460801 198.5625 442.59375 C194.74388847 445.72176157 190.93446716 448.86086292 187.125 452 C179.80037717 458.03539294 172.45996785 464.05094241 165.109375 470.0546875 C158.6882012 475.30313196 152.2844752 480.57244379 145.88427734 485.84643555 C141.11873259 489.77252838 136.34390943 493.68698864 131.5625 497.59375 C127.74388852 500.72176153 123.93445577 503.86084917 120.125 507 C114.61298441 511.54213132 109.0933902 516.07460801 103.5625 520.59375 C99.74388847 523.72176157 95.93446716 526.86086292 92.125 530 C84.80037717 536.03539294 77.45996785 542.05094241 70.109375 548.0546875 C63.6882012 553.30313196 57.2844752 558.57244379 50.88427734 563.84643555 C46.11873259 567.77252838 41.34390943 571.68698864 36.5625 575.59375 C33.49223517 578.10875417 30.42775992 580.63066278 27.36499023 583.15478516 C25.87834872 584.3794213 24.39088805 585.60306374 22.90258789 586.82568359 C19.70863384 589.4505279 16.52009758 592.07912089 13.37109375 594.7578125 C0.20226945 605.85698847 0.20226945 605.85698847 -9.203125 605.38671875 C-14.09660675 604.51539736 -17.37795365 602.07576053 -20.75 598.4375 C-25.05620826 591.97818761 -24.13659238 582.51449682 -23.375 575 C-21.57986313 568.70786209 -16.55088629 565.21345194 -11.51171875 561.39453125 C-7.56813703 558.38405106 -3.75749923 555.22737859 0.0625 552.0625 C1.5505199 550.83431871 3.03879675 549.60644865 4.52734375 548.37890625 C5.23487793 547.79512207 5.94241211 547.21133789 6.67138672 546.60986328 C9.15068661 544.56681111 11.6368717 542.532288 14.125 540.5 C18.8016981 536.67879546 23.46425148 532.84062334 28.125 529 C35.44962283 522.96460706 42.79003215 516.94905759 50.140625 510.9453125 C56.5617988 505.69686804 62.9655248 500.42755621 69.36572266 495.15356445 C74.13126741 491.22747162 78.90609057 487.31301136 83.6875 483.40625 C87.50611148 480.27823847 91.31554423 477.13915083 95.125 474 C100.63701559 469.45786868 106.1566098 464.92539199 111.6875 460.40625 C115.50611153 457.27823843 119.31553284 454.13913708 123.125 451 C130.44962283 444.96460706 137.79003215 438.94905759 145.140625 432.9453125 C151.5617988 427.69686804 157.9655248 422.42755621 164.36572266 417.15356445 C169.13126741 413.22747162 173.90609057 409.31301136 178.6875 405.40625 C182.50611153 402.27823843 186.31553284 399.13913708 190.125 396 C197.44962283 389.96460706 204.79003215 383.94905759 212.140625 377.9453125 C218.5617988 372.69686804 224.9655248 367.42755621 231.36572266 362.15356445 C236.13126741 358.22747162 240.90609057 354.31301136 245.6875 350.40625 C249.50611148 347.27823847 253.31554423 344.13915083 257.125 341 C262.63560204 336.45903351 268.15336374 331.92721435 273.68359375 327.41015625 C276.03349778 325.48467048 278.37933046 323.55456433 280.72265625 321.62109375 C288.31329576 315.35816778 295.90708102 309.10606858 303.625 303 C302.29616274 299.01348822 299.67970687 297.48983911 296.4375 295.0625 C291.36766639 291.1806644 286.43940233 287.19442256 281.625 283 C277.05566637 279.03097016 272.40996099 275.20620862 267.625 271.5 C262.22747571 267.31932828 257.0294499 262.95609601 251.875 258.48046875 C247.88132632 255.03057653 243.79688748 251.73140754 239.625 248.5 C234.13442368 244.24657401 228.83821567 239.80988644 223.5871582 235.26513672 C219.61279257 231.8301692 215.5668534 228.51169188 211.4453125 225.25390625 C207.66036109 222.22909051 203.92463747 219.14607561 200.1875 216.0625 C199.44395264 215.44906738 198.70040527 214.83563477 197.93432617 214.20361328 C196.4824005 213.00572252 195.03049553 211.80780667 193.57861328 210.60986328 C191.09931339 208.56681111 188.6131283 206.532288 186.125 204.5 C181.4483019 200.67879546 176.78574852 196.84062334 172.125 193 C165.6359725 187.65312663 159.13703791 182.31883842 152.625 177 C145.36337619 171.06892217 138.12006694 165.11611367 130.88427734 159.15356445 C126.97008068 155.92885454 123.05223253 152.70883634 119.125 149.5 C113.69835162 145.0660312 108.29093719 140.60886462 102.8828125 136.15234375 C98.96909428 132.92805276 95.05174032 129.70843416 91.125 126.5 C86.4483019 122.67879546 81.78574852 118.84062334 77.125 115 C70.6359725 109.65312663 64.13703791 104.31883842 57.625 99 C50.36337619 93.06892217 43.12006694 87.11611367 35.88427734 81.15356445 C31.97008068 77.92885454 28.05223253 74.70883634 24.125 71.5 C19.4483019 67.67879546 14.78574852 63.84062334 10.125 60 C5.33857924 56.0560522 0.55037587 52.11445505 -4.25 48.1875 C-5.09304688 47.49398437 -5.93609375 46.80046875 -6.8046875 46.0859375 C-8.6470495 44.59076834 -10.5088481 43.11942706 -12.3828125 41.6640625 C-13.37023437 40.88804687 -14.35765625 40.11203125 -15.375 39.3125 C-16.261875 38.62800781 -17.14875 37.94351563 -18.0625 37.23828125 C-21.97616072 33.45022789 -23.47778497 29.87232309 -23.84375 24.50390625 C-23.87008026 22.85694836 -23.8801514 21.2096603 -23.875 19.5625 C-23.90335938 18.74201172 -23.93171875 17.92152344 -23.9609375 17.07617188 C-23.98008028 11.0796971 -22.59057475 7.31631323 -18.375 3 C-12.46005949 -1.67759707 -7.13170237 -2.113097 0 0 Z " fill="#01E4FE" transform="translate(835.375,245)"/>
<path d="M0 0 C4.0847847 2.28812397 6.90885119 5.12971256 8.8125 9.4375 C9.125 13.375 9.125 13.375 8.8125 16.4375 C8.1525 16.4375 7.4925 16.4375 6.8125 16.4375 C6.54695313 17.0365918 6.28140625 17.63568359 6.0078125 18.25292969 C4.77323941 20.50925323 3.6313216 21.732726 1.6875 23.390625 C1.06842773 23.92333008 0.44935547 24.45603516 -0.18847656 25.00488281 C-1.17799316 25.83777832 -1.17799316 25.83777832 -2.1875 26.6875 C-3.20408691 27.5552002 -3.20408691 27.5552002 -4.24121094 28.44042969 C-8.70364764 32.2329709 -13.22619073 35.9430629 -17.82421875 39.5703125 C-25.96696545 46.00375535 -33.91937123 52.68446636 -41.92797852 59.28369141 C-46.69356602 63.20991274 -51.46850183 67.12441613 -56.25 71.03125 C-60.06861153 74.15926157 -63.87803284 77.29836292 -67.6875 80.4375 C-75.01212283 86.47289294 -82.35253215 92.48844241 -89.703125 98.4921875 C-96.1242988 103.74063196 -102.5280248 109.00994379 -108.92822266 114.28393555 C-113.69376741 118.21002838 -118.46859057 122.12448864 -123.25 126.03125 C-127.06861148 129.15926153 -130.87804423 132.29834917 -134.6875 135.4375 C-140.19951559 139.97963132 -145.7191098 144.51210801 -151.25 149.03125 C-155.06861153 152.15926157 -158.87803284 155.29836292 -162.6875 158.4375 C-170.01212283 164.47289294 -177.35253215 170.48844241 -184.703125 176.4921875 C-191.1242988 181.74063196 -197.5280248 187.00994379 -203.92822266 192.28393555 C-208.69376741 196.21002838 -213.46859057 200.12448864 -218.25 204.03125 C-222.06861153 207.15926157 -225.87803284 210.29836292 -229.6875 213.4375 C-237.01212283 219.47289294 -244.35253215 225.48844241 -251.703125 231.4921875 C-258.1242988 236.74063196 -264.5280248 242.00994379 -270.92822266 247.28393555 C-275.69376741 251.21002838 -280.46859057 255.12448864 -285.25 259.03125 C-289.06861153 262.15926157 -292.87803284 265.29836292 -296.6875 268.4375 C-301.47392076 272.3814478 -306.26212413 276.32304495 -311.0625 280.25 C-311.90167969 280.93835938 -312.74085938 281.62671875 -313.60546875 282.3359375 C-315.49457486 283.87351554 -317.39458881 285.3977187 -319.30078125 286.9140625 C-320.31527344 287.72617187 -321.32976562 288.53828125 -322.375 289.375 C-323.75751953 290.47134766 -323.75751953 290.47134766 -325.16796875 291.58984375 C-325.83441406 292.19957031 -326.50085938 292.80929687 -327.1875 293.4375 C-327.1875 294.0975 -327.1875 294.7575 -327.1875 295.4375 C-325.31560942 297.1739329 -325.31560942 297.1739329 -322.875 299 C-321.95976562 299.71414063 -321.04453125 300.42828125 -320.1015625 301.1640625 C-319.13992188 301.91429687 -318.17828125 302.66453125 -317.1875 303.4375 C-315.37037699 304.9109837 -313.55785626 306.39016128 -311.75 307.875 C-310.82574219 308.63296875 -309.90148437 309.3909375 -308.94921875 310.171875 C-308.03785156 310.91953125 -307.12648438 311.6671875 -306.1875 312.4375 C-304.47927642 313.83346765 -302.77094143 315.22929898 -301.0625 316.625 C-295.51302388 321.16475768 -289.97998583 325.72437401 -284.44677734 330.28393555 C-280.53258068 333.50864546 -276.61473253 336.72866366 -272.6875 339.9375 C-268.0108019 343.75870454 -263.34824852 347.59687666 -258.6875 351.4375 C-252.1984725 356.78437337 -245.69953791 362.11866158 -239.1875 367.4375 C-231.92587619 373.36857783 -224.68256694 379.32138633 -217.44677734 385.28393555 C-213.53258068 388.50864546 -209.61473253 391.72866366 -205.6875 394.9375 C-200.26085162 399.3714688 -194.85343719 403.82863538 -189.4453125 408.28515625 C-185.53159428 411.50944724 -181.61424032 414.72906584 -177.6875 417.9375 C-173.0108019 421.75870454 -168.34824852 425.59687666 -163.6875 429.4375 C-157.1984725 434.78437337 -150.69953791 440.11866158 -144.1875 445.4375 C-136.92587619 451.36857783 -129.68256694 457.32138633 -122.44677734 463.28393555 C-118.53258068 466.50864546 -114.61473253 469.72866366 -110.6875 472.9375 C-105.26085162 477.3714688 -99.85343719 481.82863538 -94.4453125 486.28515625 C-90.53159428 489.50944724 -86.61424032 492.72906584 -82.6875 495.9375 C-78.0108019 499.75870454 -73.34824852 503.59687666 -68.6875 507.4375 C-62.1984725 512.78437337 -55.69953791 518.11866158 -49.1875 523.4375 C-42.67546165 528.75633877 -36.17658913 534.09070096 -29.6875 539.4375 C-25.00375818 543.29626167 -20.31992092 547.15483853 -15.625 551 C-14.78839844 551.68707031 -13.95179688 552.37414062 -13.08984375 553.08203125 C-10.76126507 554.97184679 -8.41901745 556.83964741 -6.06640625 558.69921875 C-4.98178101 559.56341431 -4.98178101 559.56341431 -3.87524414 560.44506836 C-2.44861181 561.58131152 -1.01701267 562.71135463 0.42016602 563.83422852 C5.40772608 567.82121107 8.40056299 570.84229684 9.4375 577.375 C9.34346199 579.99321605 9.04779698 581.13761169 7.41796875 583.21484375 C1.7633843 588.25346039 -3.03446869 589.63465966 -10.4921875 589.8984375 C-17.03861327 588.77890382 -21.95261542 584.16534394 -26.75 579.875 C-31.45841477 575.74818319 -36.23288501 571.76527325 -41.1875 567.9375 C-46.67864558 563.68484859 -51.97432737 559.24734919 -57.2253418 554.70263672 C-61.19970743 551.2676692 -65.2456466 547.94919188 -69.3671875 544.69140625 C-73.15213891 541.66659051 -76.88786253 538.58357561 -80.625 535.5 C-81.74032104 534.57985107 -81.74032104 534.57985107 -82.87817383 533.64111328 C-84.3300995 532.44322252 -85.78200447 531.24530667 -87.23388672 530.04736328 C-89.71318661 528.00431111 -92.1993717 525.969788 -94.6875 523.9375 C-100.11414838 519.5035312 -105.52156281 515.04636462 -110.9296875 510.58984375 C-114.84340572 507.36555276 -118.76075968 504.14593416 -122.6875 500.9375 C-127.3641981 497.11629546 -132.02675148 493.27812334 -136.6875 489.4375 C-143.1765275 484.09062663 -149.67546209 478.75633842 -156.1875 473.4375 C-163.44912381 467.50642217 -170.69243306 461.55361367 -177.92822266 455.59106445 C-181.84241932 452.36635454 -185.76026747 449.14633634 -189.6875 445.9375 C-195.11414838 441.5035312 -200.52156281 437.04636462 -205.9296875 432.58984375 C-209.84340572 429.36555276 -213.76075968 426.14593416 -217.6875 422.9375 C-222.3641981 419.11629546 -227.02675148 415.27812334 -231.6875 411.4375 C-238.1765275 406.09062663 -244.67546209 400.75633842 -251.1875 395.4375 C-258.44912381 389.50642217 -265.69243306 383.55361367 -272.92822266 377.59106445 C-276.84241932 374.36635454 -280.76026747 371.14633634 -284.6875 367.9375 C-290.11414838 363.5035312 -295.52156281 359.04636462 -300.9296875 354.58984375 C-304.84340572 351.36555276 -308.76075968 348.14593416 -312.6875 344.9375 C-317.3641981 341.11629546 -322.02675148 337.27812334 -326.6875 333.4375 C-331.47392076 329.4935522 -336.26212413 325.55195505 -341.0625 321.625 C-341.91457031 320.92761719 -342.76664063 320.23023438 -343.64453125 319.51171875 C-345.40914518 318.07237928 -347.17765755 316.63781123 -348.94921875 315.20703125 C-355.20696401 310.13625022 -361.25291071 304.88290405 -367.1875 299.4375 C-367.8475 299.7675 -368.5075 300.0975 -369.1875 300.4375 C-369.60966258 294.31614266 -369.31493454 291.28723558 -365.1875 286.4375 C-362.63308046 283.96121564 -359.93708907 281.69345479 -357.1875 279.4375 C-356.33671875 278.73496094 -355.4859375 278.03242187 -354.609375 277.30859375 C-351.80964335 275.00881418 -348.99938538 272.72239729 -346.1875 270.4375 C-344.35358895 268.93820638 -342.52025076 267.43821175 -340.6875 265.9375 C-338.0085008 263.74524854 -335.32925792 261.55330532 -332.6484375 259.36328125 C-326.9840921 254.73426182 -321.33309447 250.08936094 -315.6875 245.4375 C-308.362855 239.40213381 -301.022468 233.38655771 -293.671875 227.3828125 C-287.2507012 222.13436804 -280.8469752 216.86505621 -274.44677734 211.59106445 C-269.68123259 207.66497162 -264.90640943 203.75051136 -260.125 199.84375 C-256.30638852 196.71573847 -252.49695577 193.57665083 -248.6875 190.4375 C-243.17548441 185.89536868 -237.6558902 181.36289199 -232.125 176.84375 C-228.30638847 173.71573843 -224.49696716 170.57663708 -220.6875 167.4375 C-213.36287717 161.40210706 -206.02246785 155.38655759 -198.671875 149.3828125 C-192.2507012 144.13436804 -185.8469752 138.86505621 -179.44677734 133.59106445 C-174.68123259 129.66497162 -169.90640943 125.75051136 -165.125 121.84375 C-161.30638847 118.71573843 -157.49696716 115.57663708 -153.6875 112.4375 C-146.36287717 106.40210706 -139.02246785 100.38655759 -131.671875 94.3828125 C-125.2507012 89.13436804 -118.8469752 83.86505621 -112.44677734 78.59106445 C-107.68123259 74.66497162 -102.90640943 70.75051136 -98.125 66.84375 C-94.30638852 63.71573847 -90.49695577 60.57665083 -86.6875 57.4375 C-81.17548441 52.89536868 -75.6558902 48.36289199 -70.125 43.84375 C-66.30638847 40.71573843 -62.49696716 37.57663708 -58.6875 34.4375 C-53.03973127 29.7838128 -47.38795177 25.13538382 -41.71875 20.5078125 C-39.98585902 19.09047883 -38.2568715 17.66836292 -36.53125 16.2421875 C-31.47152268 12.0693664 -26.36437553 7.96371767 -21.1875 3.9375 C-20.63529785 3.50381104 -20.0830957 3.07012207 -19.51416016 2.62329102 C-13.39461408 -2.10045274 -7.12194234 -3.15631535 0 0 Z " fill="#823AAF" transform="translate(528.1875,245.5625)"/>
<path d="M0 0 C0.96141403 -0.00524185 1.92282806 -0.0104837 2.91337585 -0.0158844 C4.93792765 -0.02227741 6.96251672 -0.02100308 8.98706055 -0.01245117 C12.05521133 -0.00395886 15.12148655 -0.03271299 18.18945312 -0.06445312 C30.35653803 -0.10844181 41.93634395 -0.13249689 51.328125 8.71875 C56.15423315 14.49166956 57.87995101 20.8107972 57.9387207 28.20898438 C57.9485775 29.23652328 57.9485775 29.23652328 57.95863342 30.28482056 C57.97834794 32.55316283 57.99002968 34.82143869 58 37.08984375 C58.00407553 37.86770737 58.00815105 38.64557098 58.01235008 39.44700623 C58.03321077 43.57046237 58.04750807 47.69388532 58.05688477 51.81738281 C58.06790219 56.05272235 58.1022472 60.28752967 58.14205647 64.52268219 C58.16836428 67.79834892 58.17658944 71.0738921 58.18016624 74.34965515 C58.18500191 75.90919049 58.19652846 77.46872145 58.21520424 79.02815247 C58.33392282 89.60529797 58.05793098 100.00724542 50.69921875 108.37109375 C43.1143588 114.90107334 33.90028461 116.02573005 24.24128437 115.92578506 C23.12946081 115.93040044 22.01763726 115.93501582 20.87212208 115.93977106 C17.15598434 115.95033736 13.44054341 115.93243178 9.72444153 115.91461182 C7.02968509 115.91635666 4.33497309 115.91969146 1.64022559 115.92496848 C-4.21355519 115.93324043 -10.0671729 115.92672795 -15.92093468 115.91041565 C-24.62516393 115.88622771 -33.32929086 115.88507686 -42.03354759 115.8885836 C-56.67701539 115.89383374 -71.32041089 115.88049438 -85.96385765 115.85651398 C-100.46004787 115.83283564 -114.95620796 115.81744812 -129.45241737 115.81310272 C-130.8050508 115.81269028 -130.8050508 115.81269028 -132.18501015 115.81226951 C-136.76468082 115.81091616 -141.34435151 115.80971063 -145.92402223 115.80856201 C-178.35114274 115.80016319 -210.77822391 115.77322166 -243.20532227 115.73535156 C-274.70532014 115.69860668 -306.20530725 115.67027573 -337.70532227 115.65332031 C-338.67650588 115.65279421 -339.64768949 115.6522681 -340.6483029 115.65172606 C-350.40144036 115.64645192 -360.15457789 115.64134867 -369.9077155 115.63637062 C-389.77549845 115.62622611 -409.6432807 115.6149411 -429.51106262 115.60296631 C-430.42452572 115.60241715 -431.33798882 115.60186799 -432.27913262 115.60130219 C-493.26553194 115.56450739 -554.2519091 115.50104424 -615.23828125 115.43359375 C-615.23828125 109.16359375 -615.23828125 102.89359375 -615.23828125 96.43359375 C-613.18066311 96.43269812 -613.18066311 96.43269812 -611.08147693 96.43178439 C-550.64987074 96.40521784 -490.21826836 96.37372233 -429.78668213 96.31695557 C-428.41513097 96.3156693 -428.41513097 96.3156693 -427.01587171 96.31435705 C-407.14599661 96.29569305 -387.27612248 96.27614072 -367.40624915 96.2556728 C-357.66259726 96.24564129 -347.91894517 96.23580616 -338.17529297 96.22607422 C-337.2056631 96.22510241 -336.23603323 96.22413061 -335.23702063 96.22312935 C-303.78730689 96.19170114 -272.33760175 96.17324984 -240.88787502 96.16150128 C-208.57930074 96.14936355 -176.27076239 96.1241875 -143.96221206 96.08251761 C-139.40277908 96.0766432 -134.84334593 96.07091842 -130.28391266 96.06528473 C-129.38651769 96.06417127 -128.48912272 96.06305781 -127.56453396 96.06191061 C-113.09711431 96.04434522 -98.62972221 96.04059556 -84.16229333 96.04196454 C-69.63086039 96.04304648 -55.0994983 96.02968742 -40.56809226 96.00142947 C-31.92613972 95.9850674 -23.28434723 95.97993566 -14.64238492 95.990622 C-8.87677289 95.99666286 -3.11129976 95.98833193 2.65427971 95.96810145 C5.94414855 95.95697562 9.23362408 95.95448139 12.52350464 95.9650813 C16.06061716 95.97550723 19.59680424 95.96166533 23.13385391 95.94140244 C24.16456605 95.95030614 25.19527819 95.95920985 26.25722402 95.96838337 C31.67596347 95.97291289 31.67596347 95.97291289 36.3954761 93.58683801 C38.28260961 90.61265227 38.24957791 88.49585674 38.23168945 84.984375 C38.23461502 83.67621826 38.23754059 82.36806152 38.24055481 81.02026367 C38.22343951 79.59553341 38.20574045 78.17081005 38.1875 76.74609375 C38.1825741 75.28166142 38.17927652 73.81722278 38.17753601 72.3527832 C38.16990139 69.28609043 38.14935929 66.21986528 38.1184082 63.15332031 C38.07883383 59.22579271 38.06079812 55.29856912 38.05109882 51.37086487 C38.04111499 47.62090015 38.02124132 43.87100914 38 40.12109375 C37.99660425 39.40700348 37.9932085 38.69291321 37.98970985 37.95718384 C37.97810499 35.93235531 37.95858707 33.90757682 37.9387207 31.8828125 C37.92395439 30.15550903 37.92395439 30.15550903 37.90888977 28.39331055 C37.78458922 25.89353564 37.49064847 23.81435925 36.76171875 21.43359375 C30.40803678 21.35761626 24.05447166 21.30502478 17.70043945 21.26879883 C15.53828554 21.25369931 13.37616232 21.23321804 11.21411133 21.20727539 C8.10880975 21.17094358 5.00391261 21.15387913 1.8984375 21.140625 C0.44518318 21.11739922 0.44518318 21.11739922 -1.03742981 21.09370422 C-1.93813705 21.09347763 -2.8388443 21.09325104 -3.7668457 21.09301758 C-4.9559832 21.08302483 -4.9559832 21.08302483 -6.16914368 21.0728302 C-8.79285164 21.53028562 -9.66582246 22.31184705 -11.23828125 24.43359375 C-11.70373958 27.76009597 -11.70373958 27.76009597 -11.63671875 31.5859375 C-11.64102402 32.63075035 -11.64102402 32.63075035 -11.64541626 33.69667053 C-11.64745576 35.16847548 -11.64193377 36.6403076 -11.62939453 38.11206055 C-11.61336157 40.35983256 -11.62923257 42.60580009 -11.6484375 44.85351562 C-11.64645457 46.28516021 -11.64260986 47.71680367 -11.63671875 49.1484375 C-11.63333496 50.449021 -11.62995117 51.74960449 -11.62646484 53.08959961 C-11.397784 56.34454562 -11.397784 56.34454562 -10.26489258 58.85083008 C-7.00066379 61.40016091 -3.38762849 61.03714006 0.5859375 61.04296875 C1.44733841 61.059505 2.30873932 61.07604126 3.19624329 61.09307861 C5.94730688 61.14166045 8.69781737 61.16295164 11.44921875 61.18359375 C13.31448111 61.21174499 15.17971758 61.24167123 17.04492188 61.2734375 C21.61744439 61.35076543 26.18820506 61.3911875 30.76171875 61.43359375 C30.76171875 68.03359375 30.76171875 74.63359375 30.76171875 81.43359375 C25.40804745 81.52603124 20.05720626 81.60547975 14.70336914 81.65332031 C12.88686682 81.67328718 11.07042754 81.70047062 9.25415039 81.73535156 C-2.56906581 81.95652865 -12.30034238 81.80192563 -22.61328125 75.30859375 C-31.4303786 65.65177285 -31.5213207 54.6926578 -31.64331055 42.3347168 C-31.66479536 40.70461722 -31.69878468 39.07463 -31.74584961 37.44506836 C-32.07208007 26.01307078 -31.45359891 16.4418155 -23.44702148 7.41381836 C-16.83497365 0.97300901 -8.81616244 -0.02848699 0 0 Z " fill="#652772" transform="translate(1345.23828125,899.56640625)"/>
<path d="M0 0 C-1.19770314 6.09650533 -2.83276169 11.79036182 -5.125 17.5625 C-5.58894165 18.7383667 -5.58894165 18.7383667 -6.06225586 19.93798828 C-8.9033886 26.99768626 -12.22189711 33.73699433 -15.71728516 40.49023438 C-17.23770339 43.46509153 -18.71933981 46.45789501 -20.19921875 49.453125 C-26.96916453 63.14358606 -33.94054387 76.68427853 -41.36035156 90.03710938 C-43.16808552 93.30373524 -44.95604806 96.58091981 -46.7421875 99.859375 C-55.27235841 115.48998253 -64.12322828 130.89002677 -73.29199219 146.15527344 C-74.78646887 148.64435896 -76.27426779 151.13720272 -77.7578125 153.6328125 C-81.46713958 159.85920971 -85.26829753 166.01401735 -89.16870117 172.12255859 C-90.88863889 174.82502306 -92.59179888 177.53716163 -94.2890625 180.25390625 C-101.76509345 192.17778682 -109.5980973 203.71172937 -118 215 C-119.05477174 216.42832321 -120.10945975 217.85670826 -121.1640625 219.28515625 C-130.16641986 231.43063288 -139.63035791 242.9982462 -150 254 C-150.77472656 254.82886719 -151.54945313 255.65773438 -152.34765625 256.51171875 C-157.44647282 261.808373 -162.87690755 265.95625123 -169 270 C-169.59039063 270.44730469 -170.18078125 270.89460938 -170.7890625 271.35546875 C-173.10169587 273.09290869 -174.44282534 274.03518698 -177.38525391 273.84936523 C-180.61991539 272.79862879 -182.12350828 271.30778424 -184.5234375 268.91015625 C-190.05291491 263.73255467 -196.03567746 260.11647169 -202.625 256.4375 C-203.72457031 255.81037109 -204.82414063 255.18324219 -205.95703125 254.53710938 C-208.63195548 253.01356557 -211.31268611 251.50154546 -214 250 C-212.86739725 246.41858686 -211.66999303 243.10194661 -209.85546875 239.8125 C-209.22137085 238.65802368 -209.22137085 238.65802368 -208.57446289 237.48022461 C-207.88791626 236.25251343 -207.88791626 236.25251343 -207.1875 235 C-206.70466553 234.13060791 -206.22183105 233.26121582 -205.72436523 232.36547852 C-202.08078893 225.84450665 -198.34933408 219.37621256 -194.5625 212.9375 C-194.08643311 212.12603516 -193.61036621 211.31457031 -193.11987305 210.47851562 C-184.11353593 195.2944241 -174.45374388 180.51236384 -164.64550781 165.83789062 C-162.99718245 163.37078287 -161.35385036 160.90040196 -159.7109375 158.4296875 C-150.17154529 144.11327737 -140.43904907 129.9449881 -129.9375 116.3125 C-129.26050049 115.42949219 -128.58350098 114.54648437 -127.88598633 113.63671875 C-125.92844899 111.08767024 -123.96545318 108.54294774 -122 106 C-121.46955078 105.31212402 -120.93910156 104.62424805 -120.39257812 103.91552734 C-114.26534616 95.98389473 -107.93649477 88.25276508 -101.40917969 80.64746094 C-99.97597461 78.9719121 -98.55350262 77.28773026 -97.1328125 75.6015625 C-86.59660348 63.13834093 -75.70720002 50.28754864 -63.25 39.6875 C-61.0223922 37.77691419 -58.84247374 35.85028273 -56.71484375 33.828125 C-43.66031698 21.47979365 -28.97987671 11.18744245 -13 3 C-11.58847656 2.27296875 -11.58847656 2.27296875 -10.1484375 1.53125 C-6.33189932 -0.30864463 -4.05841682 -1.34681974 0 0 Z " fill="#EA0C64" transform="translate(834,353)"/>
<path d="M0 0 C1.2179274 -0.0004985 2.4358548 -0.00099701 3.69068909 -0.00151062 C6.24457445 0.00081516 8.79846275 0.01045437 11.35229492 0.02709961 C15.26697105 0.05086055 19.18097236 0.04762793 23.09570312 0.04101562 C25.58463948 0.0465877 28.07357298 0.0536946 30.5625 0.0625 C31.7322789 0.06158859 32.9020578 0.06067719 34.10728455 0.05973816 C35.19263992 0.06927017 36.2779953 0.07880219 37.39624023 0.08862305 C38.34901352 0.09323044 39.3017868 0.09783783 40.28343201 0.10258484 C44.15732697 0.50129024 46.00365948 1.4155657 48.54512024 4.3790741 C50.36572186 8.65274056 50.2110714 12.51151732 50.15698242 17.1105957 C50.15763954 18.57472649 50.15763954 18.57472649 50.15830994 20.06843567 C50.15622341 23.28801622 50.13289829 26.50707314 50.109375 29.7265625 C50.10377858 31.96143815 50.0995087 34.19631748 50.09651184 36.43119812 C50.08506679 42.30850414 50.05560227 48.18558716 50.0223999 54.06280518 C49.99169186 60.06202172 49.97800492 66.06127436 49.96289062 72.06054688 C49.93073242 83.82823866 49.877967 95.59570651 49.81640625 107.36328125 C43.21640625 107.36328125 36.61640625 107.36328125 29.81640625 107.36328125 C29.81640625 98.78328125 29.81640625 90.20328125 29.81640625 81.36328125 C7.70640625 81.36328125 -14.40359375 81.36328125 -37.18359375 81.36328125 C-37.18359375 89.94328125 -37.18359375 98.52328125 -37.18359375 107.36328125 C-43.78359375 107.36328125 -50.38359375 107.36328125 -57.18359375 107.36328125 C-57.27460857 99.52130441 -57.34771607 91.67962558 -57.39084244 83.83726311 C-57.41155965 80.19420341 -57.43957898 76.55152929 -57.48535156 72.90869141 C-57.52938622 69.38137244 -57.55284949 65.85442007 -57.56310272 62.32684708 C-57.57389678 60.35187926 -57.60502629 58.37705527 -57.63677979 56.40231323 C-57.64055071 40.92252321 -53.15988894 26.71272606 -42.62109375 15.11328125 C-30.43592796 3.80185797 -16.28098692 -0.129753 0 0 Z " fill="#0DE5FE" transform="translate(611.18359375,873.63671875)"/>
<path d="M0 0 C-0.53157292 5.97514874 -1.8205452 10.95111597 -4.0625 16.5 C-4.37630615 17.28842285 -4.6901123 18.0768457 -5.01342773 18.88916016 C-7.88168886 25.95724833 -11.21353456 32.72083752 -14.71728516 39.49023438 C-16.23770339 42.46509153 -17.71933981 45.45789501 -19.19921875 48.453125 C-25.96916453 62.14358606 -32.94054387 75.68427853 -40.36035156 89.03710938 C-42.16808552 92.30373524 -43.95604806 95.58091981 -45.7421875 98.859375 C-54.27235841 114.48998253 -63.12322828 129.89002677 -72.29199219 145.15527344 C-73.78646887 147.64435896 -75.27426779 150.13720272 -76.7578125 152.6328125 C-80.46713958 158.85920971 -84.26829753 165.01401735 -88.16870117 171.12255859 C-89.88863889 173.82502306 -91.59179888 176.53716163 -93.2890625 179.25390625 C-100.76509345 191.17778682 -108.5980973 202.71172937 -117 214 C-118.05477174 215.42832321 -119.10945975 216.85670826 -120.1640625 218.28515625 C-129.16641986 230.43063288 -138.63035791 241.9982462 -149 253 C-149.77472656 253.82886719 -150.54945313 254.65773438 -151.34765625 255.51171875 C-156.43472751 260.79617196 -161.8611314 264.99976252 -168 269 C-168.99 269.66 -169.98 270.32 -171 271 C-174.92477513 270.71437786 -176.84706788 269.59422108 -179.6015625 266.8671875 C-184.4001579 262.45626632 -189.73755464 259.3506641 -195.375 256.125 C-196.37144531 255.54492188 -197.36789062 254.96484375 -198.39453125 254.3671875 C-203.14242018 251.58288336 -203.14242018 251.58288336 -208 249 C-206.43358249 244.69235185 -204.31663844 240.93828536 -202 237 C-201.14664063 237.15726563 -200.29328125 237.31453125 -199.4140625 237.4765625 C-185.63025128 239.58986994 -175.54600884 237.07905115 -164.1875 229.125 C-160.38786656 226.22356071 -156.9545525 223.16515713 -153.6640625 219.703125 C-151.91875556 217.91684841 -150.08759024 216.30749725 -148.1875 214.6875 C-124.48579726 194.02796983 -108.25382227 166.14179826 -93 139 C-92.48630859 138.08976074 -91.97261719 137.17952148 -91.44335938 136.24169922 C-82.37413069 120.06203226 -74.12358221 103.45195401 -65.8125 86.875 C-65.2611438 85.77764526 -64.7097876 84.68029053 -64.14172363 83.54968262 C-62.51276802 80.3037695 -60.88991351 77.05488812 -59.26953125 73.8046875 C-58.73792892 72.7429834 -58.2063266 71.6812793 -57.65861511 70.58740234 C-55.03038387 65.29034454 -52.5244995 59.97654202 -50.21508789 54.53222656 C-44.74871462 41.70851778 -39.18231384 32.32935924 -28.8125 23 C-27.65510835 21.90821938 -26.50080401 20.81315666 -25.34960938 19.71484375 C-22.60004942 17.10449405 -19.81422838 14.54042032 -17 12 C-18.41686525 12.7719917 -19.83186278 13.54741177 -21.24609375 14.32421875 C-22.42836548 14.97136841 -22.42836548 14.97136841 -23.63452148 15.6315918 C-26.93470551 17.54071879 -29.94347353 19.72386327 -33 22 C-32.76790893 18.73575147 -31.90341078 17.91459479 -29.40234375 15.703125 C-28.25799093 14.87065384 -27.10216217 14.05381195 -25.9375 13.25 C-25.32422852 12.81896973 -24.71095703 12.38793945 -24.07910156 11.94384766 C-6.59193705 0 -6.59193705 0 0 0 Z " fill="#CA1259" transform="translate(833,354)"/>
<path d="M0 0 C0.97135895 -0.00428513 1.9427179 -0.00857025 2.94351196 -0.01298523 C4.99260684 -0.0187124 7.04172204 -0.01924071 9.09082031 -0.01489258 C12.20934104 -0.01173618 15.32690911 -0.0352 18.4453125 -0.06054688 C20.44270715 -0.06282053 22.44010432 -0.06352305 24.4375 -0.0625 C25.36170746 -0.07170975 26.28591492 -0.08091949 27.23812866 -0.09040833 C35.53209929 -0.03176639 42.26582954 2.00356126 48.8515625 7.30078125 C55.14544855 14.33246734 57.16566371 20.63405612 57.1171875 29.953125 C57.11910095 30.77148331 57.1210144 31.58984161 57.12298584 32.43299866 C57.12434145 34.1567516 57.12068876 35.88051496 57.11230469 37.60424805 C57.10160999 40.22663588 57.11221397 42.84833659 57.125 45.47070312 C57.12367803 47.15234525 57.12111485 48.83398694 57.1171875 50.515625 C57.12123596 51.29187729 57.12528442 52.06812958 57.12945557 52.86790466 C57.0562831 61.46724786 54.95953127 68.06267229 48.8515625 74.30078125 C41.47422167 79.56374881 35.10053302 81.19067499 26.15625 81.02734375 C24.54691086 81.02883926 24.54691086 81.02883926 22.90505981 81.03036499 C20.65456671 81.02571711 18.40405989 81.00646002 16.15380859 80.97314453 C12.72788777 80.92579956 9.30507328 80.93206511 5.87890625 80.9453125 C3.67966913 80.93416085 1.48044498 80.91994227 -0.71875 80.90234375 C-1.7314798 80.90416656 -2.74420959 80.90598938 -3.78762817 80.90786743 C-11.71175399 80.75129881 -19.2378289 78.98127868 -24.9609375 73.11328125 C-25.48300781 72.60410156 -26.00507812 72.09492187 -26.54296875 71.5703125 C-32.88853772 62.60005564 -32.74214765 54.05131838 -32.61499023 43.39868164 C-32.58596791 40.74106556 -32.59441915 38.08544203 -32.60742188 35.42773438 C-32.60118463 33.71743835 -32.5927938 32.00714854 -32.58203125 30.296875 C-32.58496689 29.51332138 -32.58790253 28.72976776 -32.59092712 27.92247009 C-32.45821451 20.06323862 -30.19363565 13.67477131 -24.8203125 7.8359375 C-17.62174885 1.22604144 -9.37855491 -0.00920833 0 0 Z " fill="#672973" transform="translate(992.1484375,899.69921875)"/>
<path d="M0 0 C0.98484375 0.84949219 1.9696875 1.69898438 2.984375 2.57421875 C7.02920019 6.04077621 11.13302233 9.43220033 15.25 12.8125 C15.99652832 13.42633545 16.74305664 14.0401709 17.51220703 14.67260742 C23.33383295 19.45775514 29.16354143 24.23295464 35 29 C42.26162381 34.93107783 49.50493306 40.88388633 56.74072266 46.84643555 C60.65491932 50.07114546 64.57276747 53.29116366 68.5 56.5 C73.92664838 60.9339688 79.33406281 65.39113538 84.7421875 69.84765625 C88.65590572 73.07194724 92.57325968 76.29156584 96.5 79.5 C101.1766981 83.32120454 105.83925148 87.15937666 110.5 91 C116.9890275 96.34687337 123.48796209 101.68116158 130 107 C137.26162381 112.93107783 144.50493306 118.88388633 151.74072266 124.84643555 C155.65491932 128.07114546 159.57276747 131.29116366 163.5 134.5 C168.92664838 138.9339688 174.33406281 143.39113538 179.7421875 147.84765625 C183.65590572 151.07194724 187.57325968 154.29156584 191.5 157.5 C196.1766981 161.32120454 200.83925148 165.15937666 205.5 169 C211.9890275 174.34687337 218.48796209 179.68116158 225 185 C232.26162381 190.93107783 239.50493306 196.88388633 246.74072266 202.84643555 C250.65491932 206.07114546 254.57276747 209.29116366 258.5 212.5 C263.92664838 216.9339688 269.33406281 221.39113538 274.7421875 225.84765625 C278.65590572 229.07194724 282.57325968 232.29156584 286.5 235.5 C291.1766981 239.32120454 295.83925148 243.15937666 300.5 247 C306.9890275 252.34687337 313.48796209 257.68116158 320 263 C321.70858695 264.39552288 323.41691115 265.7913675 325.125 267.1875 C326.01960938 267.91710937 326.91421875 268.64671875 327.8359375 269.3984375 C330.31438562 271.42773809 332.77176924 273.48122382 335.2265625 275.5390625 C336.34587158 276.47262573 336.34587158 276.47262573 337.48779297 277.42504883 C338.96182531 278.65489386 340.43238988 279.88891091 341.89892578 281.12768555 C348.46737668 286.59421767 353.77918917 290.72310504 362.640625 290.3203125 C368.6053257 289.51053525 372.04383846 286.30523462 376 282 C377.78072742 283.78072742 377.25615294 286.27643877 377.3125 288.6875 C377.23780903 294.9914178 375.99117101 297.95193171 371.5625 302.46484375 C367.3160131 306.14989609 363.2948158 306.83259869 357.75 306.53125 C352.88874883 305.59214466 349.7485304 303.12679348 346 300 C345.02417969 299.18789063 344.04835938 298.37578125 343.04296875 297.5390625 C340.83454784 295.68289049 338.64378222 293.80739684 336.45703125 291.92578125 C333.04960631 289.01355971 329.54120705 286.24689463 326 283.5 C320.22663022 279.01235711 314.62846603 274.35111812 309.06640625 269.60546875 C305.44751587 266.52012551 301.7656244 263.51455086 298.078125 260.51171875 C294.20819902 257.35389844 290.3541192 254.17707836 286.5 251 C281.83933954 247.15927055 277.17669746 243.32120402 272.5 239.5 C267.8233019 235.67879546 263.16074852 231.84062334 258.5 228 C252.0109725 222.65312663 245.51203791 217.31883842 239 212 C231.73837619 206.06892217 224.49506694 200.11611367 217.25927734 194.15356445 C213.34508068 190.92885454 209.42723253 187.70883634 205.5 184.5 C200.07335162 180.0660312 194.66593719 175.60886462 189.2578125 171.15234375 C185.34409428 167.92805276 181.42674032 164.70843416 177.5 161.5 C172.8233019 157.67879546 168.16074852 153.84062334 163.5 150 C157.0109725 144.65312663 150.51203791 139.31883842 144 134 C136.73837619 128.06892217 129.49506694 122.11611367 122.25927734 116.15356445 C118.34508068 112.92885454 114.42723253 109.70883634 110.5 106.5 C105.07335162 102.0660312 99.66593719 97.60886462 94.2578125 93.15234375 C90.34409428 89.92805276 86.42674032 86.70843416 82.5 83.5 C77.8233019 79.67879546 73.16074852 75.84062334 68.5 72 C62.0109725 66.65312663 55.51203791 61.31883842 49 56 C42.48796021 50.68116005 35.98929389 45.346552 29.5 40 C28.03386513 38.79295543 26.5677195 37.58592394 25.1015625 36.37890625 C22.63530619 34.348306 20.17141008 32.31494659 17.7109375 30.27734375 C16.77507812 29.50519531 15.83921875 28.73304688 14.875 27.9375 C14.02550781 27.23625 13.17601562 26.535 12.30078125 25.8125 C10.27767518 24.21874581 8.22883772 22.82395614 6.0625 21.4375 C2.26305034 18.41344823 0.37269032 15.64730097 -1 11 C-1.42738729 7.17793654 -1.74781321 3.49562643 0 0 Z " fill="#03E2FD" transform="translate(160,544)"/>
<path d="M0 0 C0.66 0.33 1.32 0.66 2 1 C2.54263267 7.55982603 2.62363097 12.71320009 -1.33203125 18.17578125 C-3.79849416 20.87329454 -6.53738424 23.00846267 -9.484375 25.16015625 C-12.19594472 27.1433074 -14.78286774 29.23834241 -17.375 31.375 C-18.30828125 32.14199219 -19.2415625 32.90898438 -20.203125 33.69921875 C-21.12609375 34.45847656 -22.0490625 35.21773437 -23 36 C-24.70798892 37.39625475 -26.41632639 38.79208322 -28.125 40.1875 C-33.67447612 44.72725768 -39.20751417 49.28687401 -44.74072266 53.84643555 C-49.50626741 57.77252838 -54.28109057 61.68698864 -59.0625 65.59375 C-62.88111153 68.72176157 -66.69053284 71.86086292 -70.5 75 C-77.82462283 81.03539294 -85.16503215 87.05094241 -92.515625 93.0546875 C-98.9367988 98.30313196 -105.3405248 103.57244379 -111.74072266 108.84643555 C-116.50626741 112.77252838 -121.28109057 116.68698864 -126.0625 120.59375 C-129.88111148 123.72176153 -133.69054423 126.86084917 -137.5 130 C-143.01201559 134.54213132 -148.5316098 139.07460801 -154.0625 143.59375 C-157.88111153 146.72176157 -161.69053284 149.86086292 -165.5 153 C-172.82462283 159.03539294 -180.16503215 165.05094241 -187.515625 171.0546875 C-193.9367988 176.30313196 -200.3405248 181.57244379 -206.74072266 186.84643555 C-211.50626741 190.77252838 -216.28109057 194.68698864 -221.0625 198.59375 C-224.88111148 201.72176153 -228.69054423 204.86084917 -232.5 208 C-238.01201559 212.54213132 -243.5316098 217.07460801 -249.0625 221.59375 C-252.88111153 224.72176157 -256.69053284 227.86086292 -260.5 231 C-267.82462283 237.03539294 -275.16503215 243.05094241 -282.515625 249.0546875 C-288.9367988 254.30313196 -295.3405248 259.57244379 -301.74072266 264.84643555 C-306.50626741 268.77252838 -311.28109057 272.68698864 -316.0625 276.59375 C-319.13276483 279.10875417 -322.19724008 281.63066278 -325.26000977 284.15478516 C-326.74665128 285.3794213 -328.23411195 286.60306374 -329.72241211 287.82568359 C-332.91636616 290.4505279 -336.10490242 293.07912089 -339.25390625 295.7578125 C-352.42273055 306.85698847 -352.42273055 306.85698847 -361.828125 306.38671875 C-366.72160675 305.51539736 -370.00295365 303.07576053 -373.375 299.4375 C-375.9128782 295.6306827 -376.11508224 292.78199072 -376.0625 288.3125 C-376.05347656 287.31863281 -376.04445313 286.32476563 -376.03515625 285.30078125 C-376.01775391 284.16189453 -376.01775391 284.16189453 -376 283 C-375.34 282.67 -374.68 282.34 -374 282 C-372.828125 283.49739583 -371.65625 284.99479167 -370.484375 286.4921875 C-367.2763123 289.75090382 -364.16077386 290.3117288 -359.6875 290.375 C-358.78386719 290.40335938 -357.88023437 290.43171875 -356.94921875 290.4609375 C-350.4969993 289.45251115 -345.69582431 285.14571154 -340.9375 280.9375 C-336.4064521 277.01367192 -331.80333794 273.22995321 -327.0625 269.5625 C-321.55286028 265.28721007 -316.23497543 260.82865533 -310.96240234 256.26538086 C-306.98798621 252.830294 -302.94194397 249.51176347 -298.8203125 246.25390625 C-295.03536109 243.22909051 -291.29963747 240.14607561 -287.5625 237.0625 C-286.44717896 236.14235107 -286.44717896 236.14235107 -285.30932617 235.20361328 C-283.8574005 234.00572252 -282.40549553 232.80780667 -280.95361328 231.60986328 C-278.47431339 229.56681111 -275.9881283 227.532288 -273.5 225.5 C-268.8233019 221.67879546 -264.16074852 217.84062334 -259.5 214 C-253.01096963 208.65312427 -246.51155153 203.31943671 -240 198 C-238.16654964 196.50014304 -236.33321829 195.0001406 -234.5 193.5 C-227.16666667 187.5 -219.83333333 181.5 -212.5 175.5 C-211.58476563 174.75105469 -210.66953125 174.00210938 -209.7265625 173.23046875 C-207.97182216 171.79500065 -206.21664845 170.36006204 -204.4609375 168.92578125 C-198.04718247 163.68432888 -191.65162647 158.42108858 -185.25927734 153.15356445 C-180.49373259 149.22747162 -175.71890943 145.31301136 -170.9375 141.40625 C-167.11888852 138.27823847 -163.30945577 135.13915083 -159.5 132 C-154.83926544 128.15935985 -150.17669799 124.32120446 -145.5 120.5 C-137.98156039 114.35577669 -130.49323 108.1749163 -123 102 C-113.67863941 94.31858339 -104.35407958 86.64156348 -95 79 C-93.16654964 77.50014304 -91.33321829 76.0001406 -89.5 74.5 C-86.8210008 72.30774854 -84.14175792 70.11580532 -81.4609375 67.92578125 C-75.04718247 62.68432888 -68.65162647 57.42108858 -62.25927734 52.15356445 C-57.49373259 48.22747162 -52.71890943 44.31301136 -47.9375 40.40625 C-44.11888847 37.27823843 -40.30946716 34.13913708 -36.5 31 C-31.71357924 27.0560522 -26.92537587 23.11445505 -22.125 19.1875 C-21.279375 18.49527344 -20.43375 17.80304687 -19.5625 17.08984375 C-17.73317314 15.59793846 -15.89933178 14.11156169 -14.0625 12.62890625 C-13.093125 11.84386719 -12.12375 11.05882812 -11.125 10.25 C-10.26132813 9.55390625 -9.39765625 8.8578125 -8.5078125 8.140625 C-5.86282352 5.88290855 -3.42838622 3.48761515 -1 1 C-0.67 0.67 -0.34 0.34 0 0 Z " fill="#823CB0" transform="translate(1188,544)"/>
<path d="M0 0 C6.27 0 12.54 0 19 0 C19.11318689 12.2137361 19.20482362 24.427121 19.25906086 36.64126396 C19.28509861 42.31345052 19.32039058 47.98525808 19.37719727 53.65722656 C19.43172418 59.13616765 19.46146429 64.61474533 19.47438622 70.09393692 C19.48358899 72.17904502 19.50155976 74.26413435 19.52865028 76.34908676 C19.80847854 98.78796912 19.80847854 98.78796912 12.24409485 106.87789917 C5.16620556 113.69570976 -2.12708545 114.45985432 -11.55859375 114.43359375 C-13.21327415 114.44145653 -13.21327415 114.44145653 -14.90138245 114.44947815 C-17.22697104 114.45588218 -19.55259209 114.45458242 -21.87817383 114.44604492 C-25.42262842 114.4375357 -28.96546999 114.46632013 -32.50976562 114.49804688 C-34.77604119 114.49965917 -37.04231958 114.49908082 -39.30859375 114.49609375 C-40.36090683 114.50732773 -41.41321991 114.51856171 -42.49742126 114.53013611 C-50.06320111 114.45900971 -55.28300761 113.13148385 -61.20703125 108.140625 C-61.73683594 107.51671875 -62.26664063 106.8928125 -62.8125 106.25 C-63.35519531 105.63640625 -63.89789062 105.0228125 -64.45703125 104.390625 C-68.59904149 97.97313065 -69.45992224 91.97909789 -69.43359375 84.53125 C-69.4388356 83.65150513 -69.44407745 82.77176025 -69.44947815 81.86535645 C-69.45586437 80.01653086 -69.45460575 78.16766445 -69.44604492 76.31884766 C-69.43752242 73.50739602 -69.46636318 70.69797097 -69.49804688 67.88671875 C-69.49965901 66.08072977 -69.49908113 64.27473723 -69.49609375 62.46875 C-69.50732773 61.63831177 -69.51856171 60.80787354 -69.53013611 59.95227051 C-69.44816682 53.01070824 -67.43207252 47.88779548 -62.95703125 42.57421875 C-62.24933594 41.95160156 -61.54164062 41.32898438 -60.8125 40.6875 C-60.11769531 40.05199219 -59.42289063 39.41648437 -58.70703125 38.76171875 C-52.04252032 34.42449735 -45.1685699 33.56130396 -37.37109375 33.70703125 C-36.05843285 33.71339851 -36.05843285 33.71339851 -34.71925354 33.71989441 C-31.95833928 33.73652019 -29.19818895 33.77414034 -26.4375 33.8125 C-24.55144293 33.82756772 -22.66537427 33.84125244 -20.77929688 33.85351562 C-16.18590917 33.88637063 -11.59308353 33.93803865 -7 34 C-6.97111486 37.14581423 -6.95324077 40.29159469 -6.9375 43.4375 C-6.92912109 44.33533203 -6.92074219 45.23316406 -6.91210938 46.15820312 C-6.90888672 47.01220703 -6.90566406 47.86621094 -6.90234375 48.74609375 C-6.89710693 49.53685303 -6.89187012 50.3276123 -6.88647461 51.14233398 C-7 53 -7 53 -8 54 C-10.85922657 54.12314557 -13.69804418 54.18612194 -16.55859375 54.2109375 C-18.32357706 54.2390012 -20.0885509 54.26766563 -21.85351562 54.296875 C-24.64949327 54.33820577 -27.44529324 54.37507328 -30.24145508 54.40136719 C-32.93087723 54.42888046 -35.61948306 54.47474744 -38.30859375 54.5234375 C-39.14821152 54.52669037 -39.98782928 54.52994324 -40.85289001 54.53329468 C-43.45389206 54.55415187 -43.45389206 54.55415187 -47 55 C-49.40491105 58.60736658 -49.28982863 61.23961275 -49.265625 65.40625 C-49.26753845 66.12735962 -49.2694519 66.84846924 -49.27142334 67.59143066 C-49.27278301 69.11450551 -49.26910177 70.63759202 -49.26074219 72.16064453 C-49.25003914 74.49147583 -49.26064438 76.82153642 -49.2734375 79.15234375 C-49.27211587 80.6328142 -49.26955339 82.11328417 -49.265625 83.59375 C-49.26967346 84.2906897 -49.27372192 84.98762939 -49.27789307 85.70568848 C-49.24247329 89.36195961 -49.08630382 90.87054428 -47 94 C-45.09125859 94.45627671 -45.09125859 94.45627671 -42.87329102 94.38818359 C-41.59670372 94.40236832 -41.59670372 94.40236832 -40.29432678 94.4168396 C-39.37348801 94.41076691 -38.45264923 94.40469421 -37.50390625 94.3984375 C-36.08717873 94.40274277 -36.08717873 94.40274277 -34.64183044 94.40713501 C-32.6419922 94.40917879 -30.64213412 94.40362707 -28.64233398 94.39111328 C-25.57815854 94.37508192 -22.51530576 94.39094229 -19.45117188 94.41015625 C-17.51041375 94.40817352 -15.56965645 94.40432924 -13.62890625 94.3984375 C-12.25068443 94.40754654 -12.25068443 94.40754654 -10.84461975 94.4168396 C-9.99040939 94.40738312 -9.13619904 94.39792664 -8.25610352 94.38818359 C-7.12930931 94.38460342 -7.12930931 94.38460342 -5.97975159 94.38095093 C-3.41479245 93.88739226 -2.63852293 93.00509149 -1 91 C-0.69007511 88.03428765 -0.56255641 85.27430918 -0.56762695 82.3059082 C-0.5574353 81.4178952 -0.54724365 80.5298822 -0.53674316 79.61495972 C-0.50652479 76.67683679 -0.49733373 73.7390394 -0.48828125 70.80078125 C-0.47144112 68.76481536 -0.45329179 66.7288599 -0.43388367 64.69291687 C-0.38630524 59.33193219 -0.3565466 53.97098982 -0.33044434 48.60986328 C-0.30067837 43.14021444 -0.25413446 37.67071153 -0.20898438 32.20117188 C-0.1228619 21.4675073 -0.05710674 10.73385822 0 0 Z " fill="#672974" transform="translate(1134,866)"/>
<path d="M0 0 C0.66 0 1.32 0 2 0 C3.03186934 12.53530167 3.03186934 12.53530167 -0.3125 17.25 C-4.64487295 22.10103732 -9.89155334 26.01009173 -15 30 C-16.83725253 31.49519706 -18.67063761 32.99515969 -20.5 34.5 C-23.1789992 36.69225146 -25.85824208 38.88419468 -28.5390625 41.07421875 C-34.95281753 46.31567112 -41.34837353 51.57891142 -47.74072266 56.84643555 C-52.50626741 60.77252838 -57.28109057 64.68698864 -62.0625 68.59375 C-65.88111148 71.72176153 -69.69054423 74.86084917 -73.5 78 C-79.01201559 82.54213132 -84.5316098 87.07460801 -90.0625 91.59375 C-93.88111153 94.72176157 -97.69053284 97.86086292 -101.5 101 C-108.82462283 107.03539294 -116.16503215 113.05094241 -123.515625 119.0546875 C-129.9367988 124.30313196 -136.3405248 129.57244379 -142.74072266 134.84643555 C-147.50626741 138.77252838 -152.28109057 142.68698864 -157.0625 146.59375 C-160.88111148 149.72176153 -164.69054423 152.86084917 -168.5 156 C-174.01201559 160.54213132 -179.5316098 165.07460801 -185.0625 169.59375 C-188.88111153 172.72176157 -192.69053284 175.86086292 -196.5 179 C-203.82462283 185.03539294 -211.16503215 191.05094241 -218.515625 197.0546875 C-224.9367988 202.30313196 -231.3405248 207.57244379 -237.74072266 212.84643555 C-242.50626741 216.77252838 -247.28109057 220.68698864 -252.0625 224.59375 C-255.88111153 227.72176157 -259.69053284 230.86086292 -263.5 234 C-270.82462283 240.03539294 -278.16503215 246.05094241 -285.515625 252.0546875 C-290.44303991 256.08218532 -295.36233393 260.119241 -300.27392578 264.16601562 C-301.75373141 265.38517552 -303.23387281 266.60392797 -304.71435547 267.82226562 C-307.93484458 270.47264796 -311.15346766 273.12495878 -314.359375 275.79296875 C-315.31328125 276.58316406 -316.2671875 277.37335938 -317.25 278.1875 C-318.46429688 279.19876953 -318.46429688 279.19876953 -319.703125 280.23046875 C-322.04052337 282.03121954 -324.44145823 283.53473583 -327 285 C-329.64 283.02 -332.28 281.04 -335 279 C-332.90050077 274.80100154 -330.53857669 272.63399556 -327 269.75 C-326.41621582 269.26547363 -325.83243164 268.78094727 -325.23095703 268.28173828 C-321.00416506 264.78541733 -316.73033531 261.3473941 -312.43359375 257.9375 C-304.28824382 251.45259861 -296.29441521 244.77469411 -288.25952148 238.15380859 C-283.49393398 234.22758726 -278.71899817 230.31308387 -273.9375 226.40625 C-270.11888847 223.27823843 -266.30946716 220.13913708 -262.5 217 C-255.17537717 210.96460706 -247.83496785 204.94905759 -240.484375 198.9453125 C-234.0632012 193.69686804 -227.6594752 188.42755621 -221.25927734 183.15356445 C-216.49373259 179.22747162 -211.71890943 175.31301136 -206.9375 171.40625 C-203.11888847 168.27823843 -199.30946716 165.13913708 -195.5 162 C-188.17537717 155.96460706 -180.83496785 149.94905759 -173.484375 143.9453125 C-167.0632012 138.69686804 -160.6594752 133.42755621 -154.25927734 128.15356445 C-149.49373259 124.22747162 -144.71890943 120.31301136 -139.9375 116.40625 C-136.11888852 113.27823847 -132.30945577 110.13915083 -128.5 107 C-122.98798441 102.45786868 -117.4683902 97.92539199 -111.9375 93.40625 C-108.11888847 90.27823843 -104.30946716 87.13913708 -100.5 84 C-93.17537717 77.96460706 -85.83496785 71.94905759 -78.484375 65.9453125 C-72.0632012 60.69686804 -65.6594752 55.42755621 -59.25927734 50.15356445 C-54.49373259 46.22747162 -49.71890943 42.31301136 -44.9375 38.40625 C-40.37253341 34.66686247 -35.81997166 30.91242963 -31.26660156 27.15893555 C-27.27011851 23.86553748 -23.26563829 20.58254463 -19.25 17.3125 C-15.10480007 13.91981329 -10.98016761 10.5034645 -6.875 7.0625 C-6.30555664 6.58917236 -5.73611328 6.11584473 -5.14941406 5.62817383 C-2.14587389 3.17287469 -2.14587389 3.17287469 0 0 Z " fill="#03E3FD" transform="translate(535,262)"/>
<path d="M0 0 C0.69738281 0.71542969 1.39476562 1.43085938 2.11328125 2.16796875 C4.99699278 5.04965306 8.06350767 7.69626143 11.1875 10.3125 C12.04287354 11.03252197 12.04287354 11.03252197 12.91552734 11.76708984 C17.08259993 15.26239254 21.30602372 18.68146042 25.56640625 22.0625 C33.70728986 28.54384554 41.69659046 35.21821446 49.72729492 41.83520508 C55.47433704 46.56976171 61.23303847 51.28971776 67 56 C74.26162381 61.93107783 81.50493306 67.88388633 88.74072266 73.84643555 C93.50485409 77.77136401 98.27794711 81.68504077 103.05859375 85.58984375 C105.40849778 87.51532952 107.75433046 89.44543567 110.09765625 91.37890625 C119.00447605 98.74399259 119.00447605 98.74399259 128 106 C134.74819549 111.36395026 141.37105438 116.8821992 148.02001953 122.36816406 C152.33594988 125.92521442 156.6683909 129.46207083 161 133 C168.26162381 138.93107783 175.50493306 144.88388633 182.74072266 150.84643555 C186.65491932 154.07114546 190.57276747 157.29116366 194.5 160.5 C199.92664838 164.9339688 205.33406281 169.39113538 210.7421875 173.84765625 C214.65590572 177.07194724 218.57325968 180.29156584 222.5 183.5 C227.1766981 187.32120454 231.83925148 191.15937666 236.5 195 C242.9890275 200.34687337 249.48796209 205.68116158 256 211 C263.26162381 216.93107783 270.50493306 222.88388633 277.74072266 228.84643555 C281.65491932 232.07114546 285.57276747 235.29116366 289.5 238.5 C294.1766981 242.32120454 298.83925148 246.15937666 303.5 250 C308.28642076 253.9439478 313.07462413 257.88554495 317.875 261.8125 C318.71675781 262.5034375 319.55851562 263.194375 320.42578125 263.90625 C322.28700856 265.42008587 324.16110167 266.91814972 326.04296875 268.40625 C327.53763672 269.59734375 327.53763672 269.59734375 329.0625 270.8125 C329.96097656 271.52019531 330.85945313 272.22789062 331.78515625 272.95703125 C334 275 334 275 336 279 C333.69 280.98 331.38 282.96 329 285 C325.13268795 283.06634398 321.98102146 280.79490151 318.625 278.125 C317.70460938 277.39796875 317.70460938 277.39796875 316.765625 276.65625 C311.82024554 272.72013166 307.02472397 268.62582213 302.25244141 264.48291016 C298.2582647 261.03182574 294.17282504 257.73207654 290 254.5 C284.60247571 250.31932828 279.4044499 245.95609601 274.25 241.48046875 C270.25632632 238.03057653 266.17188748 234.73140754 262 231.5 C256.50942368 227.24657401 251.21321567 222.80988644 245.9621582 218.26513672 C241.98779257 214.8301692 237.9418534 211.51169188 233.8203125 208.25390625 C230.03536109 205.22909051 226.29963747 202.14607561 222.5625 199.0625 C221.81895264 198.44906738 221.07540527 197.83563477 220.30932617 197.20361328 C218.8574005 196.00572252 217.40549553 194.80780667 215.95361328 193.60986328 C213.47431339 191.56681111 210.9881283 189.532288 208.5 187.5 C203.8233019 183.67879546 199.16074852 179.84062334 194.5 176 C188.0109725 170.65312663 181.51203791 165.31883842 175 160 C167.73837619 154.06892217 160.49506694 148.11611367 153.25927734 142.15356445 C149.34508068 138.92885454 145.42723253 135.70883634 141.5 132.5 C136.07335162 128.0660312 130.66593719 123.60886462 125.2578125 119.15234375 C121.34409428 115.92805276 117.42674032 112.70843416 113.5 109.5 C108.8233019 105.67879546 104.16074852 101.84062334 99.5 98 C93.0109725 92.65312663 86.51203791 87.31883842 80 82 C72.73837619 76.06892217 65.49506694 70.11611367 58.25927734 64.15356445 C54.34508068 60.92885454 50.42723253 57.70883634 46.5 54.5 C41.8233019 50.67879546 37.16074852 46.84062334 32.5 43 C27.71357924 39.0560522 22.92537587 35.11445505 18.125 31.1875 C17.28195312 30.49398438 16.43890625 29.80046875 15.5703125 29.0859375 C13.7279505 27.59076834 11.8661519 26.11942706 9.9921875 24.6640625 C9.00476563 23.88804687 8.01734375 23.11203125 7 22.3125 C6.113125 21.62800781 5.22625 20.94351562 4.3125 20.23828125 C0.88285302 16.91870739 -0.80008764 13.80159116 -1.328125 9.04296875 C-1.30234375 8.10066406 -1.2765625 7.15835937 -1.25 6.1875 C-1.23453125 5.23230469 -1.2190625 4.27710938 -1.203125 3.29296875 C-1 1 -1 1 0 0 Z " fill="#823CB0" transform="translate(813,262)"/>
<path d="M0 0 C1.71205608 0.00934197 3.42412565 0.01645153 5.13619995 0.0214386 C9.61138742 0.04039981 14.0857451 0.08940433 18.56060791 0.1449585 C23.13924947 0.19638789 27.71802697 0.21900288 32.296875 0.24414062 C41.25823309 0.297536 50.21876102 0.38538036 59.1796875 0.48828125 C59.1796875 6.75828125 59.1796875 13.02828125 59.1796875 19.48828125 C56.98924805 19.49762695 54.79880859 19.50697266 52.54199219 19.51660156 C45.30545088 19.55036607 38.06919492 19.60591183 30.83288193 19.67218399 C26.4453761 19.71169647 22.05807209 19.74386628 17.67041016 19.75927734 C13.43616726 19.77441935 9.20247909 19.80882044 4.96848297 19.85659027 C3.35300772 19.87142958 1.73745328 19.87932373 0.1219101 19.8801651 C-2.14100815 19.88252899 -4.40238611 19.9095583 -6.66503906 19.94238281 C-8.59697113 19.95570648 -8.59697113 19.95570648 -10.56793213 19.96929932 C-13.85339532 20.25250506 -13.85339532 20.25250506 -16.23616028 22.16522217 C-18.20916172 25.05850404 -18.32144745 26.71605413 -18.32202148 30.203125 C-18.33609291 31.92511108 -18.33609291 31.92511108 -18.35044861 33.68188477 C-18.33359764 35.53511353 -18.33359764 35.53511353 -18.31640625 37.42578125 C-18.31786148 38.69800537 -18.31931671 39.97022949 -18.32081604 41.28100586 C-18.31915568 43.97141497 -18.30966394 46.66041133 -18.28686523 49.35058594 C-18.25847983 52.79407152 -18.26121887 56.23667035 -18.27395535 59.68022156 C-18.28259328 62.97046508 -18.26746268 66.26056547 -18.25390625 69.55078125 C-18.25684189 70.78626709 -18.25977753 72.02175293 -18.26280212 73.29467773 C-18.25011795 74.44266846 -18.23743378 75.59065918 -18.22436523 76.7734375 C-18.21896225 77.782854 -18.21355927 78.79227051 -18.20799255 79.83227539 C-17.74119438 83.03032146 -17.26545969 84.35333292 -14.8203125 86.48828125 C-11.53367951 87.11035337 -11.53367951 87.11035337 -7.68676758 87.03417969 C-6.60346413 87.0496862 -6.60346413 87.0496862 -5.49827576 87.06550598 C-3.11190585 87.09499646 -0.72638177 87.09643439 1.66015625 87.09765625 C3.31498336 87.11263379 4.96979549 87.12936004 6.62458801 87.14776611 C10.97948889 87.19150022 15.33418813 87.21145198 19.68927002 87.22650146 C24.13346308 87.24605085 28.57743766 87.28802321 33.02148438 87.328125 C41.7408551 87.40349291 50.4600678 87.45167204 59.1796875 87.48828125 C59.1796875 94.08828125 59.1796875 100.68828125 59.1796875 107.48828125 C49.72127851 107.57899601 40.26316298 107.65223444 30.8044157 107.69552994 C26.41135559 107.71631965 22.018611 107.74447766 17.62573242 107.79003906 C13.37872572 107.83380706 9.13202068 107.85748299 4.88480568 107.86779022 C3.27222769 107.8751265 1.65966441 107.88945117 0.04721642 107.91120148 C-11.47450951 108.06030138 -22.53516994 107.54523216 -31.38671875 99.203125 C-35.99504308 93.69071525 -37.93756743 87.5045237 -37.98144531 80.41552734 C-37.99105286 79.16347504 -38.0006604 77.91142273 -38.01055908 76.62142944 C-38.01540913 75.25152774 -38.01968745 73.88162391 -38.0234375 72.51171875 C-38.02919377 71.1026713 -38.03495144 69.69362386 -38.04071045 68.28457642 C-38.0512159 65.32724646 -38.05706058 62.36994364 -38.06054688 59.41259766 C-38.06601054 55.64347829 -38.08999427 51.87472403 -38.11851883 48.10571861 C-38.13725365 45.19213864 -38.14235668 42.27864439 -38.14388275 39.36500931 C-38.14688878 37.9768844 -38.15484716 36.58876024 -38.16806793 35.20069504 C-38.25021636 25.90740258 -38.24189031 16.566723 -31.7578125 9.23828125 C-22.43256486 -0.1306011 -12.47595303 -0.20122137 0 0 Z " fill="#672974" transform="translate(887.8203125,873.51171875)"/>
<path d="M0 0 C6.7719081 3.52041432 10.29350196 7.16099239 13.0625 14.25 C15.37111963 24.54757916 13.34040735 33.77601312 7.89990234 42.61547852 C6.65691408 44.52163334 5.37297762 46.3897243 4.0625 48.25 C3.67288086 48.81477051 3.28326172 49.37954102 2.88183594 49.96142578 C0.41196419 53.50750129 -2.21354893 56.89668839 -4.9375 60.25 C-5.54851562 61.02601563 -6.15953125 61.80203125 -6.7890625 62.6015625 C-19.05987468 77.37875334 -35.30676075 86.18570261 -53.9375 90.25 C-54.906875 90.476875 -55.87625 90.70375 -56.875 90.9375 C-66.35348787 91.90469264 -75.87535698 92.01807863 -84.21875 86.83203125 C-84.7859375 86.30996094 -85.353125 85.78789063 -85.9375 85.25 C-85.9375 84.26 -85.9375 83.27 -85.9375 82.25 C-85.08027344 82.10304688 -84.22304688 81.95609375 -83.33984375 81.8046875 C-71.80685745 79.54229785 -67.29464989 75.57936547 -60.61328125 66.203125 C-56.47440542 58.90944173 -54.23580504 51.06443497 -52.125 43 C-48.35369263 29.35897285 -43.28582834 18.25465691 -32.9375 8.25 C-32.42445313 7.73953125 -31.91140625 7.2290625 -31.3828125 6.703125 C-22.51251442 -1.4154529 -11.36823654 -4.73991258 0 0 Z " fill="#CB155B" transform="translate(594.9375,664.75)"/>
<path d="M0 0 C0.99881699 -0.0159874 1.99763397 -0.03197479 3.02671814 -0.04844666 C4.10272781 -0.05380936 5.17873749 -0.05917206 6.28735352 -0.06469727 C7.4050563 -0.07372574 8.52275909 -0.08275421 9.67433167 -0.09205627 C12.04392825 -0.10656824 14.41356498 -0.11544785 16.78320312 -0.11914062 C20.37188567 -0.1309574 23.95880353 -0.18006885 27.54711914 -0.23071289 C41.98908651 -0.33299284 54.60033035 -0.04070985 66.26782227 9.58374023 C74.30596578 17.67693953 77.32109149 27.0409628 77.31864929 38.25428772 C77.30316544 39.34527267 77.28768158 40.43625763 77.27172852 41.56030273 C77.26748367 42.70176254 77.26323883 43.84322235 77.25886536 45.01927185 C77.24218128 48.63606158 77.20454743 52.25227746 77.16625977 55.86889648 C77.15119969 58.3330811 77.13751361 60.79727452 77.12524414 63.26147461 C77.09231142 69.27664168 77.04221505 75.29147807 76.97875977 81.30639648 C73.83294553 81.33528163 70.68716508 81.35315571 67.54125977 81.36889648 C66.64342773 81.37727539 65.7455957 81.3856543 64.82055664 81.39428711 C63.53955078 81.39912109 63.53955078 81.39912109 62.23266602 81.40405273 C61.44190674 81.40928955 60.65114746 81.41452637 59.83642578 81.41992188 C57.97875977 81.30639648 57.97875977 81.30639648 56.97875977 80.30639648 C56.8769744 78.772992 56.84307486 77.2350088 56.83691406 75.69824219 C56.82636238 74.22584831 56.82636238 74.22584831 56.81559753 72.72370911 C56.81143326 71.65400375 56.80726898 70.5842984 56.80297852 69.48217773 C56.77977303 67.23412157 56.7556554 64.98607467 56.73071289 62.73803711 C56.6956284 59.18076454 56.66627842 55.62383056 56.65283203 52.06640625 C56.63734163 48.64207461 56.59711235 45.21874444 56.55297852 41.79467773 C56.55488693 40.73509354 56.55679535 39.67550934 56.5587616 38.58381653 C56.45857883 32.52485482 56.050163 28.90565234 51.97875977 24.30639648 C46.47655328 20.31729678 41.33951327 20.13424129 34.71313477 19.98999023 C34.00946777 19.97133911 33.30580078 19.95268799 32.58081055 19.93347168 C29.96358251 19.86540571 27.34615705 19.80510944 24.72875977 19.74389648 C15.94250977 19.52733398 15.94250977 19.52733398 6.97875977 19.30639648 C6.97875977 39.43639648 6.97875977 59.56639648 6.97875977 80.30639648 C0.70875977 80.30639648 -5.56124023 80.30639648 -12.02124023 80.30639648 C-12.08904884 70.87474085 -12.14407522 61.44324743 -12.17667675 52.01140308 C-12.19232477 47.63169604 -12.21354719 43.25216459 -12.24755859 38.87255859 C-12.28018297 34.6450446 -12.29809975 30.41769938 -12.30587196 26.1900692 C-12.31140996 24.57813549 -12.32222438 22.96621089 -12.3384304 21.35434914 C-12.36024605 19.09442901 -12.3632055 16.835204 -12.36181641 14.57519531 C-12.36847824 13.28946121 -12.37514008 12.00372711 -12.38200378 10.67903137 C-11.98978178 7.01230395 -11.3068426 5.17636645 -9.02124023 2.30639648 C-6.05275565 0.25732429 -3.55844601 0.04323623 0 0 Z " fill="#672974" transform="translate(1222.021240234375,899.693603515625)"/>
<path d="M0 0 C6.6 0 13.2 0 20 0 C20 8.58 20 17.16 20 26 C31.22 26 42.44 26 54 26 C54.020625 29.114375 54.04125 32.22875 54.0625 35.4375 C54.071604 36.42032959 54.08070801 37.40315918 54.09008789 38.41577148 C54.09258545 39.18477783 54.09508301 39.95378418 54.09765625 40.74609375 C54.10289307 41.53685303 54.10812988 42.3276123 54.11352539 43.14233398 C54 45 54 45 53 46 C50.55196233 46.0884283 48.13155206 46.11535972 45.68359375 46.09765625 C45.03588013 46.09664917 44.3881665 46.09564209 43.7208252 46.09460449 C41.29303221 46.08935843 38.86526439 46.07539725 36.4375 46.0625 C28.3009375 46.0315625 28.3009375 46.0315625 20 46 C20 66.13 20 86.26 20 107 C13.4 107 6.8 107 0 107 C0 86.87 0 66.74 0 46 C-8.25 46 -16.5 46 -25 46 C-25 39.4 -25 32.8 -25 26 C-16.75 26 -8.5 26 0 26 C0 17.42 0 8.84 0 0 Z " fill="#0DE5FE" transform="translate(783,874)"/>
<path d="M0 0 C0.94028046 0.00565979 1.88056091 0.01131958 2.84933472 0.01715088 C5.81416596 0.0393085 8.77772968 0.08946373 11.7421875 0.140625 C13.76821155 0.16071673 15.79425479 0.17896278 17.8203125 0.1953125 C22.75346979 0.23568204 27.68393207 0.31400844 32.6171875 0.390625 C32.6171875 13.920625 32.6171875 27.450625 32.6171875 41.390625 C10.5071875 41.390625 -11.6028125 41.390625 -34.3828125 41.390625 C-34.3828125 18.42908654 -34.3828125 18.42908654 -26.5546875 9.24609375 C-19.03571867 1.98692669 -10.18723918 -0.23658778 0 0 Z " fill="#FEFBFA" transform="translate(608.3828125,893.609375)"/>
<path d="M0 0 C1.07628662 0.00424484 2.15257324 0.00848969 3.26147461 0.01286316 C6.6745787 0.0295585 10.08707655 0.06719432 13.5 0.10546875 C15.82421018 0.12052738 18.14842968 0.13421372 20.47265625 0.14648438 C26.14866851 0.17943216 31.82423172 0.23115157 37.5 0.29296875 C37.5 6.89296875 37.5 13.49296875 37.5 20.29296875 C35.3346167 20.32269775 35.3346167 20.32269775 33.12548828 20.35302734 C27.78416094 20.42893513 22.44311134 20.51767493 17.10205078 20.61035156 C14.78765331 20.64870276 12.47319498 20.68354465 10.15869141 20.71484375 C6.83734336 20.76036115 3.51641659 20.81837718 0.1953125 20.87890625 C-0.84430634 20.89045746 -1.88392517 20.90200867 -2.95504761 20.91390991 C-3.91589264 20.9337796 -4.87673767 20.95364929 -5.86669922 20.97412109 C-6.71497284 20.98744476 -7.56324646 21.00076843 -8.43722534 21.01449585 C-10.72186119 21.11073033 -10.72186119 21.11073033 -12.5 23.29296875 C-12.82479058 25.79297639 -12.82479058 25.79297639 -12.80297852 28.73657227 C-12.81962051 29.87437637 -12.83626251 31.01218048 -12.85340881 32.1844635 C-12.86182297 33.4178093 -12.87023712 34.65115509 -12.87890625 35.921875 C-12.89590073 37.18184799 -12.9128952 38.44182098 -12.93040466 39.73997498 C-12.97463608 43.09166259 -13.01091583 46.44322814 -13.04260254 49.79504395 C-13.08827021 54.52402895 -13.14409462 59.25286629 -13.20530701 63.98167419 C-13.23740145 66.50119383 -13.26424781 69.02078644 -13.28553772 71.54042053 C-13.29902756 72.67507248 -13.3125174 73.80972443 -13.32641602 74.97875977 C-13.33592789 75.98310562 -13.34543976 76.98745148 -13.35523987 78.02223206 C-13.5 80.29296875 -13.5 80.29296875 -14.5 81.29296875 C-15.91570123 81.37948486 -17.335595 81.40001779 -18.75390625 81.390625 C-19.60791016 81.38740234 -20.46191406 81.38417969 -21.34179688 81.38085938 C-22.23962891 81.37248047 -23.13746094 81.36410156 -24.0625 81.35546875 C-24.96419922 81.35095703 -25.86589844 81.34644531 -26.79492188 81.34179688 C-29.03001314 81.329971 -31.26497437 81.31349095 -33.5 81.29296875 C-33.63994633 73.67747659 -33.74609491 66.06212021 -33.81087303 58.44562912 C-33.84198795 54.90762174 -33.88408539 51.37050357 -33.95263672 47.83300781 C-34.03121439 43.75187391 -34.05958087 39.67165166 -34.0859375 35.58984375 C-34.11690521 34.33935242 -34.14787292 33.08886108 -34.17977905 31.80047607 C-34.18328817 22.50599614 -32.23838681 14.05684803 -25.47494507 7.25701904 C-17.7192629 0.85713232 -9.70722793 -0.14585317 0 0 Z " fill="#0EE5FE" transform="translate(713.5,899.70703125)"/>
<path d="M0 0 C-0.64878806 20.69633899 -11.59713227 35.12383994 -25 50 C-25.62777344 50.69996094 -26.25554688 51.39992188 -26.90234375 52.12109375 C-37.40122164 63.21284945 -51.27122709 69.63511 -66 73 C-64.58137285 70.02088298 -62.92350374 67.32548631 -61.125 64.5625 C-56.97091125 57.67598879 -55.10226394 50.28766107 -53.11328125 42.55078125 C-49.51198529 28.9813412 -44.166644 17.82900638 -34 8 C-33.48695313 7.48953125 -32.97390625 6.9790625 -32.4453125 6.453125 C-22.94389571 -2.24308698 -12.03265709 -4.43214736 0 0 Z " fill="#EA0D64" transform="translate(596,665)"/>
<path d="M0 0 C1.40892517 -0.00574036 1.40892517 -0.00574036 2.84631348 -0.01159668 C4.83000766 -0.01431576 6.8137377 -0.00695484 8.79736328 0.00976562 C11.83317016 0.03117539 14.86661046 0.00996393 17.90234375 -0.015625 C19.83073439 -0.01298172 21.75912356 -0.00785675 23.6875 0 C24.59487915 -0.00809692 25.5022583 -0.01619385 26.43713379 -0.02453613 C30.23657617 0.03197793 32.63660985 0.095937 35.9140625 2.11352539 C37.87913323 5.43662912 37.86150707 7.89458423 37.875 11.74609375 C37.8788269 12.43884903 37.88265381 13.13160431 37.88659668 13.84535217 C37.88931212 15.30699114 37.88197639 16.76867901 37.86523438 18.23022461 C37.84384711 20.45863154 37.86502643 22.68380336 37.890625 24.91210938 C37.88798102 26.33594457 37.88285457 27.75977776 37.875 29.18359375 C37.87048828 30.47257568 37.86597656 31.76155762 37.86132812 33.08959961 C37.23350406 37.26433348 36.63829278 38.86225728 33.34375 41.53125 C30.12261001 42.26115489 26.9792403 42.23202947 23.6875 42.1953125 C22.74821655 42.20009613 21.80893311 42.20487976 20.84118652 42.20980835 C18.8574862 42.21320721 16.87372985 42.2040057 14.89013672 42.18310547 C11.85387268 42.15633924 8.82130532 42.1828532 5.78515625 42.21484375 C3.85676267 42.21153965 1.9283714 42.20513341 0 42.1953125 C-0.90737915 42.20543365 -1.8147583 42.21555481 -2.74963379 42.22598267 C-6.87573754 42.14926651 -8.95177334 42.10196442 -12.2265625 39.44897461 C-14.00366039 35.82225041 -14.17337175 33.21998501 -14.1875 29.18359375 C-14.1913269 28.48988174 -14.19515381 27.79616974 -14.19909668 27.08143616 C-14.20180756 25.62157735 -14.19450402 24.1616693 -14.17773438 22.7019043 C-14.15627541 20.47139136 -14.17757559 18.24408651 -14.203125 16.01367188 C-14.20048221 14.59113875 -14.19535822 13.16860762 -14.1875 11.74609375 C-14.18298828 10.45823975 -14.17847656 9.17038574 -14.17382812 7.84350586 C-13.65625 4.53125 -13.65625 4.53125 -12.2265625 2.11352539 C-8.27344279 -0.32000129 -4.55702519 -0.04066424 0 0 Z " fill="#FDF9F8" transform="translate(992.65625,919.46875)"/>
<path d="M0 0 C0.66 0 1.32 0 2 0 C1.46842708 5.97514874 0.1794548 10.95111597 -2.0625 16.5 C-2.37630615 17.28842285 -2.6901123 18.0768457 -3.01342773 18.88916016 C-5.88168886 25.95724833 -9.21353456 32.72083752 -12.71728516 39.49023438 C-14.23770339 42.46509153 -15.71933981 45.45789501 -17.19921875 48.453125 C-23.96916453 62.14358606 -30.94054387 75.68427853 -38.36035156 89.03710938 C-40.16808552 92.30373524 -41.95604806 95.58091981 -43.7421875 98.859375 C-52.27235841 114.48998253 -61.12322828 129.89002677 -70.29199219 145.15527344 C-71.78646887 147.64435896 -73.27426779 150.13720272 -74.7578125 152.6328125 C-78.46713958 158.85920971 -82.26829753 165.01401735 -86.16870117 171.12255859 C-87.88863889 173.82502306 -89.59179888 176.53716163 -91.2890625 179.25390625 C-98.76509345 191.17778682 -106.5980973 202.71172937 -115 214 C-116.05477174 215.42832321 -117.10945975 216.85670826 -118.1640625 218.28515625 C-127.16641986 230.43063288 -136.63035791 241.9982462 -147 253 C-147.77472656 253.82886719 -148.54945313 254.65773438 -149.34765625 255.51171875 C-154.43472751 260.79617196 -159.8611314 264.99976252 -166 269 C-166.99 269.66 -167.98 270.32 -169 271 C-172.92477513 270.71437786 -174.84706788 269.59422108 -177.6015625 266.8671875 C-182.4001579 262.45626632 -187.73755464 259.3506641 -193.375 256.125 C-194.37144531 255.54492188 -195.36789062 254.96484375 -196.39453125 254.3671875 C-201.14242018 251.58288336 -201.14242018 251.58288336 -206 249 C-205.505 247.02 -205.505 247.02 -205 245 C-199.69153504 245.47303153 -195.8918289 248.33262542 -191.5625 251.1875 C-190.82451172 251.65736328 -190.08652344 252.12722656 -189.32617188 252.61132812 C-185.75367233 254.93901005 -182.70242576 257.19123092 -179.83984375 260.36328125 C-177.25796234 263.22836131 -177.25796234 263.22836131 -173.97265625 263.578125 C-154.97228398 259.88291462 -137.32179593 234.10187627 -126.39892578 219.82275391 C-125.05719218 218.07451952 -123.6997958 216.33954515 -122.33984375 214.60546875 C-111.76987411 200.97130226 -102.43556076 186.42894665 -93 172 C-92.41718262 171.10909668 -91.83436523 170.21819336 -91.23388672 169.30029297 C-76.80587155 147.11797328 -63.51046152 124.08995235 -50.65283203 100.97021484 C-49.49559481 98.89060656 -48.33481438 96.81296782 -47.17138672 94.73681641 C-37.01489546 76.61071218 -27.32135528 58.27538855 -17.90966797 39.75195312 C-16.17218294 36.33344234 -14.41727783 32.92408827 -12.66015625 29.515625 C-7.71799641 19.86645518 -3.20519994 10.37705615 0 0 Z " fill="#961648" transform="translate(831,354)"/>
<path d="M0 0 C6.27 0 12.54 0 19 0 C19 26.73 19 53.46 19 81 C12.73 81 6.46 81 0 81 C0 54.27 0 27.54 0 0 Z " fill="#672974" transform="translate(1172,900)"/>
<path d="M0 0 C-0.33 0.99 -0.66 1.98 -1 3 C-1 2.34 -1 1.68 -1 1 C-26.70497588 13.26531844 -48.26213584 30.83845386 -68.20727539 51.00146484 C-69.95591224 52.7686071 -71.7126699 54.52736615 -73.47070312 56.28515625 C-79.18892767 62.02108832 -84.78407936 67.79699385 -90 74 C-90.90056237 75.0446842 -91.80158264 76.0889739 -92.703125 77.1328125 C-98.81188772 84.30967177 -104.71481161 91.61602677 -110.49169922 99.06201172 C-112.1027558 101.13202906 -113.72451395 103.1933542 -115.34765625 105.25390625 C-130.23134895 124.18771072 -143.733969 143.90693391 -157.0135498 163.98352051 C-159.21084733 167.30502609 -161.41391404 170.62232001 -163.6328125 173.92944336 C-168.77525612 181.59609663 -173.79580218 189.31781299 -178.625 197.1875 C-179.29450684 198.27683838 -179.96401367 199.36617676 -180.65380859 200.48852539 C-190.57880201 216.71061483 -199.95258077 233.27464805 -209 250 C-208.2265625 250.20109375 -207.453125 250.4021875 -206.65625 250.609375 C-201.54661994 252.55278131 -197.12801126 255.36475449 -192.5 258.25 C-191.57574219 258.81074219 -190.65148437 259.37148438 -189.69921875 259.94921875 C-184.44651205 263.20304136 -180.21816821 266.49541296 -176 271 C-175.01 271.66 -174.02 272.32 -173 273 C-175.5625 273.9375 -175.5625 273.9375 -179 274 C-180.46484375 272.82421875 -180.46484375 272.82421875 -182 271.125 C-190.39473964 261.84466146 -203.17103319 256.03986447 -214 250 C-212.43890675 244.55797659 -209.93348536 239.91048499 -207.1875 235 C-206.70466553 234.13060791 -206.22183105 233.26121582 -205.72436523 232.36547852 C-202.08078893 225.84450665 -198.34933408 219.37621256 -194.5625 212.9375 C-194.08643311 212.12603516 -193.61036621 211.31457031 -193.11987305 210.47851562 C-184.11353593 195.2944241 -174.45374388 180.51236384 -164.64550781 165.83789062 C-162.99718245 163.37078287 -161.35385036 160.90040196 -159.7109375 158.4296875 C-150.17154529 144.11327737 -140.43904907 129.9449881 -129.9375 116.3125 C-129.26050049 115.42949219 -128.58350098 114.54648437 -127.88598633 113.63671875 C-125.92844899 111.08767024 -123.96545318 108.54294774 -122 106 C-121.46955078 105.31212402 -120.93910156 104.62424805 -120.39257812 103.91552734 C-114.26534616 95.98389473 -107.93649477 88.25276508 -101.40917969 80.64746094 C-99.97597461 78.9719121 -98.55350262 77.28773026 -97.1328125 75.6015625 C-86.59660348 63.13834093 -75.70720002 50.28754864 -63.25 39.6875 C-61.0223922 37.77691419 -58.84247374 35.85028273 -56.71484375 33.828125 C-43.66031698 21.47979365 -28.97987671 11.18744245 -13 3 C-11.58847656 2.27296875 -11.58847656 2.27296875 -10.1484375 1.53125 C-6.33189932 -0.30864463 -4.05841682 -1.34681974 0 0 Z " fill="#F58697" transform="translate(834,353)"/>
<path d="M0 0 C0.66 0 1.32 0 2 0 C2.20625 1.299375 2.4125 2.59875 2.625 3.9375 C4.32057455 11.3746408 8.04350627 16.95050786 14.3125 21.3125 C18.68106599 23.97970271 23.25551094 26.09323135 28 28 C26.75072885 37.79158466 15.24447694 44.29551666 8 50 C6.98679687 50.83144531 6.98679687 50.83144531 5.953125 51.6796875 C3.28404785 53.77007093 1.30655133 54.9499508 -2.0625 55.5 C-9.05947933 54.30902479 -13.19934282 50.24021559 -18.2421875 45.546875 C-20.70093668 41.98442063 -20.63637001 40.29008622 -20 36 C-18.57409524 32.29518057 -16.78710924 28.82156893 -14.9375 25.3125 C-14.18738647 23.85408691 -14.18738647 23.85408691 -13.42211914 22.36621094 C-3.79920007 3.79920007 -3.79920007 3.79920007 0 0 Z " fill="#CC155C" transform="translate(613,612)"/>
<path d="M0 0 C0.66 0 1.32 0 2 0 C2.20625 1.299375 2.4125 2.59875 2.625 3.9375 C4.3951898 11.90963136 9.25953681 17.42522081 15 23 C12.34815582 25.18591268 9.69088437 27.364378 7.0234375 29.53125 C5.15874168 31.05384401 3.30676429 32.5923624 1.4765625 34.15625 C-4.10291578 38.80264147 -4.10291578 38.80264147 -8.125 39.6875 C-11.96726782 38.76869682 -14.67325099 37.12911936 -18 35 C-17.42592321 31.52356149 -16.55304655 28.77365901 -14.890625 25.671875 C-14.46523438 24.87136719 -14.03984375 24.07085938 -13.6015625 23.24609375 C-12.93253906 22.01052734 -12.93253906 22.01052734 -12.25 20.75 C-11.81945312 19.94175781 -11.38890625 19.13351562 -10.9453125 18.30078125 C-9.64145298 15.86092436 -8.32291713 13.42956946 -7 11 C-6.54689453 10.16017578 -6.09378906 9.32035156 -5.62695312 8.45507812 C-5.18802734 7.65005859 -4.74910156 6.84503906 -4.296875 6.015625 C-3.70664551 4.92942871 -3.70664551 4.92942871 -3.10449219 3.82128906 C-2 2 -2 2 0 0 Z " fill="#EB0F65" transform="translate(613,612)"/>
<path d="M0 0 C0.66 0.33 1.32 0.66 2 1 C1.41806885 1.51191895 0.8361377 2.02383789 0.23657227 2.55126953 C-6.21530415 8.28556583 -12.41204486 14.22577679 -18.51391602 20.32861328 C-20.05923066 21.8717353 -21.61240446 23.40664306 -23.16601562 24.94140625 C-28.84017344 30.58430009 -34.1098682 36.36889503 -39.1081543 42.63378906 C-41.27008097 45.33780162 -43.53068237 47.89138214 -45.875 50.4375 C-48.41383744 53.19928195 -50.79857093 55.96092025 -53 59 C-54.65 58.67 -56.3 58.34 -58 58 C-58.66503906 55.71899414 -58.66503906 55.71899414 -59 53 C-58.01464844 51.21655273 -58.01464844 51.21655273 -56.359375 49.49609375 C-55.38387695 48.46524658 -55.38387695 48.46524658 -54.38867188 47.41357422 C-53.60041016 46.61709473 -52.81214844 45.82061523 -52 45 C-51.05214117 44.02287327 -50.10491398 43.04513355 -49.15820312 42.06689453 C-46.45001923 39.28322101 -43.7141354 36.528441 -40.96777344 33.7824707 C-39.26205402 32.07456944 -37.56450973 30.35881955 -35.8671875 28.64257812 C-27.4802654 20.21225058 -18.71161343 12.54178355 -9.0625 5.5625 C-7.74958984 4.60537109 -7.74958984 4.60537109 -6.41015625 3.62890625 C-4.30263036 2.204533 -2.36512256 0.93481086 0 0 Z " fill="#F36373" transform="translate(817,364)"/>
<path d="M0 0 C6.6 0 13.2 0 20 0 C20 5.94 20 11.88 20 18 C13.4 18 6.8 18 0 18 C0 12.06 0 6.12 0 0 Z " fill="#6F357B" transform="translate(1172,866)"/>
<path d="M0 0 C-1.15640888 3.46922663 -2.24820785 3.84798803 -5.1953125 5.73046875 C-19.54648221 15.82598857 -25.1589292 32.81627553 -28.9375 49.1875 C-31.82353927 61.43453549 -38.26712052 72.90751239 -49 80 C-53.21851274 81.56831388 -57.49942057 82.28128621 -62 82 C-61.67 83.32 -61.34 84.64 -61 86 C-61.66 86 -62.32 86 -63 86 C-63.495 83.525 -63.495 83.525 -64 81 C-63.29875 80.79246094 -62.5975 80.58492187 -61.875 80.37109375 C-54.84245214 78.08742671 -50.1230864 75.30403426 -45 70 C-44.46761719 69.48824219 -43.93523438 68.97648438 -43.38671875 68.44921875 C-35.84728484 60.59807698 -32.81008975 50.08132115 -30.39135742 39.74584961 C-28.03586465 29.71769445 -24.30967377 22.13721141 -18 14 C-17.44183594 13.27554688 -16.88367188 12.55109375 -16.30859375 11.8046875 C-12.57147451 7.24384129 -6.33913931 0 0 0 Z " fill="#FDE2D2" transform="translate(571,665)"/>
<path d="M0 0 C2.25 0.4375 2.25 0.4375 3.25 1.4375 C3.74564334 4.44740683 3.79067377 6.56414095 2.15332031 9.20898438 C0.6242762 11.1036472 -0.97097286 12.90099929 -2.625 14.6875 C-3.18058594 15.31140625 -3.73617187 15.9353125 -4.30859375 16.578125 C-10.42213865 23.41351015 -10.42213865 23.41351015 -13.3125 23.625 C-15.75 23.4375 -15.75 23.4375 -16.75 22.4375 C-16.85953546 17.17979795 -15.5114809 14.7832584 -12 10.875 C-11.27683594 10.1221875 -10.55367187 9.369375 -9.80859375 8.59375 C-8.05537913 6.75736581 -6.56612509 4.91185955 -5.0625 2.875 C-2.75 0.4375 -2.75 0.4375 0 0 Z " fill="#F36273" transform="translate(754.75,423.5625)"/>
<path d="M0 0 C1.32 0.66 2.64 1.32 4 2 C3.34 3.65 2.68 5.3 2 7 C3.16015625 7.30164063 3.16015625 7.30164063 4.34375 7.609375 C9.45338006 9.55278131 13.87198874 12.36475449 18.5 15.25 C19.42425781 15.81074219 20.34851563 16.37148438 21.30078125 16.94921875 C26.55348795 20.20304136 30.78183179 23.49541296 35 28 C35.99 28.66 36.98 29.32 38 30 C35.4375 30.9375 35.4375 30.9375 32 31 C30.53515625 29.82421875 30.53515625 29.82421875 29 28.125 C20.60526036 18.84466146 7.82896681 13.03986447 -3 7 C-1.125 1.125 -1.125 1.125 0 0 Z " fill="#D0898A" transform="translate(623,596)"/>
<path d="M0 0 C0.66 0.33 1.32 0.66 2 1 C1.44054687 1.48726563 0.88109375 1.97453125 0.3046875 2.4765625 C-7.45287803 9.33614616 -14.72750088 16.63318893 -22 24 C-23 21 -23 21 -21.8125 17.375 C-17.63155012 9.45166141 -7.928058 3.79167991 0 0 Z " fill="#E05F6C" transform="translate(817,364)"/>
<path d="M0 0 C-0.33 0.99 -0.66 1.98 -1 3 C-1 2.34 -1 1.68 -1 1 C-9.93754339 5.26461461 -18.42280766 9.64001319 -26.546875 15.3359375 C-28.65220579 16.7640759 -30.69596786 17.93411597 -33 19 C-29.89805869 11.38614407 -23.32359878 8.26641211 -16.375 4.75 C-15.51648438 4.30398438 -14.65796875 3.85796875 -13.7734375 3.3984375 C-4.48380932 -1.39152703 -4.48380932 -1.39152703 0 0 Z " fill="#E88A95" transform="translate(834,353)"/>
<path d="M0 0 C0.33 0.66 0.66 1.32 1 2 C0.19555664 3.9519043 0.19555664 3.9519043 -1.08984375 6.32421875 C-1.54423828 7.18853516 -1.99863281 8.05285156 -2.46679688 8.94335938 C-3.43826594 10.75599422 -4.41474117 12.56595597 -5.39648438 14.37304688 C-8.02515837 19.39615658 -9.89648515 23.17655101 -9 29 C-8.0098809 31.01889566 -8.0098809 31.01889566 -6.5 32.4375 C-5.675 33.283125 -4.85 34.12875 -4 35 C-7.87583261 33.42095709 -10.46498418 31.33173508 -13 28 C-13.0329272 20.57491629 -9.84059193 15.63789085 -5.9375 9.5 C-5.36966797 8.5821875 -4.80183594 7.664375 -4.21679688 6.71875 C-2.82364398 4.4709739 -1.41803875 2.23212756 0 0 Z " fill="#FCAFB3" transform="translate(603,626)"/>
<path d="M0 0 C2.375 0.75 2.375 0.75 3.375 1.75 C3.5625 4.1875 3.5625 4.1875 3.375 6.75 C1.375 8.75 1.375 8.75 -1.6875 8.9375 C-4.625 8.75 -4.625 8.75 -5.625 7.75 C-5.9232732 4.91640458 -5.98102594 3.31214622 -4.4375 0.875 C-2.625 -0.25 -2.625 -0.25 0 0 Z " fill="#F36173" transform="translate(732.625,451.25)"/>
<path d="M0 0 C-0.33 0.66 -0.66 1.32 -1 2 C-2.11375 2.37125 -3.2275 2.7425 -4.375 3.125 C-9.47439035 4.89870099 -13.41475818 8.01456541 -17.6796875 11.2578125 C-20 13 -20 13 -22 14 C-21.61250714 11.67535113 -21.33002405 10.32743054 -19.63305664 8.64379883 C-19.06449951 8.25216553 -18.49594238 7.86053223 -17.91015625 7.45703125 C-17.29076172 7.02326172 -16.67136719 6.58949219 -16.03320312 6.14257812 C-15.38287109 5.70365234 -14.73253906 5.26472656 -14.0625 4.8125 C-13.41603516 4.36197266 -12.76957031 3.91144531 -12.10351562 3.44726562 C-5.31051271 -1.25775301 -5.31051271 -1.25775301 0 0 Z " fill="#CE1F5E" transform="translate(822,362)"/>
<path d="M0 0 C0.99 0.33 1.98 0.66 3 1 C2.01 3.31 1.02 5.62 0 8 C-2.475 7.01 -2.475 7.01 -5 6 C-3.86525052 2.59575156 -3.03188696 1.78346291 0 0 Z " fill="#E88591" transform="translate(628,590)"/>
<path d="M0 0 C-0.33 0.99 -0.66 1.98 -1 3 C-1 2.34 -1 1.68 -1 1 C-2.1446875 1.495 -2.1446875 1.495 -3.3125 2 C-6 3 -6 3 -9 3 C-9 2.34 -9 1.68 -9 1 C-5.57367167 -0.61798838 -3.61944899 -1.34053666 0 0 Z " fill="#E5939D" transform="translate(834,353)"/>
<path d="M0 0 C-1 3 -1 3 -4.0625 4.6875 C-5.031875 5.120625 -6.00125 5.55375 -7 6 C-7 5.01 -7 4.02 -7 3 C-2.77777778 0 -2.77777778 0 0 0 Z " fill="#FDE2D8" transform="translate(571,665)"/>
</svg>
